<svg xmlns="http://www.w3.org/2000/svg" xmlns:xlink="http://www.w3.org/1999/xlink" version="1.1" width="1000" height="1000" viewBox="0 0 1000 1000" xml:space="preserve">
<desc>Created with Fabric.js 3.5.0</desc>
<defs>
</defs>
<rect x="0" y="0" width="100%" height="100%" fill="rgba(255,255,255,0)"/>
<g transform="matrix(0.4557 0 0 0.4557 499.9776 499.9776)" id="707891">
<path style="stroke: none; stroke-width: 1; stroke-dasharray: none; stroke-linecap: butt; stroke-dashoffset: 0; stroke-linejoin: miter; stroke-miterlimit: 4; is-custom-font: none; font-file-url: none; fill: rgb(23,47,110); fill-rule: nonzero; opacity: 1;" vector-effect="non-scaling-stroke" transform=" translate(-896, -896)" d="M 1344 960 v -128 q 0 -26 -19 -45 t -45 -19 h -768 q -26 0 -45 19 t -19 45 v 128 q 0 26 19 45 t 45 19 h 768 q 26 0 45 -19 t 19 -45 z m 320 -64 q 0 209 -103 385.5 t -279.5 279.5 t -385.5 103 t -385.5 -103 t -279.5 -279.5 t -103 -385.5 t 103 -385.5 t 279.5 -279.5 t 385.5 -103 t 385.5 103 t 279.5 279.5 t 103 385.5 z" stroke-linecap="round"/>
</g>
</svg>