<svg width="1008" height="762" viewBox="0 0 1008 762" fill="none" xmlns="http://www.w3.org/2000/svg">
<g clip-path="url(#clip0_2393_3126)">
<path d="M714.406 295H628.406V350H714.406V295Z" fill="#2F7DF7"/>
<path d="M580.406 381H494.406V436H580.406V381Z" fill="#2F7DF7"/>
<path fill-rule="evenodd" clip-rule="evenodd" d="M965.812 313V196H900.812V120H856.812V196H791.812V313H755.812V50H682.812V25H585.812V0H489.812V25H398.812V50H319.812V312H277.812V195H212.812V119H168.812V195H103.812V312H61.8115V727H157.812V580H223.812V727H481.812V556H593.812V727H749.812V728H845.812V581H911.812V728H1007.81V313H965.812ZM96.3115 363H134.312V393H96.3115V363ZM96.8115 447H134.812V477H96.8115V447ZM135.312 561H97.3115V531H135.312V561ZM234.812 290H146.812V272H234.812V290ZM234.812 264H146.812V246H234.812V264ZM234.812 238H146.812V220H234.812V238ZM247.312 363H285.312V393H247.312V363ZM247.812 447H285.812V477H247.812V447ZM286.312 561H248.312V531H286.312V561ZM441.812 511H371.812V480H441.812V511ZM441.812 422H371.812V391H441.812V422ZM441.812 333H371.812V302H441.812V333ZM441.812 244H371.812V213H441.812V244ZM441.812 155H371.812V124H441.812V155ZM572.812 511H502.812V480H572.812V511ZM572.812 422H502.812V391H572.812V422ZM572.812 333H502.812V302H572.812V333ZM572.812 244H502.812V213H572.812V244ZM572.812 155H502.812V124H572.812V155ZM703.812 511H633.812V480H703.812V511ZM703.812 422H633.812V391H703.812V422ZM703.812 333H633.812V302H703.812V333ZM703.812 244H633.812V213H703.812V244ZM703.812 155H633.812V124H703.812V155ZM784.312 364H822.312V394H784.312V364ZM784.812 448H822.812V478H784.812V448ZM823.312 562H785.312V532H823.312V562ZM922.812 291H834.812V273H922.812V291ZM922.812 265H834.812V247H922.812V265ZM922.812 239H834.812V221H922.812V239ZM935.312 364H973.312V394H935.312V364ZM935.812 448H973.812V478H935.812V448ZM974.312 562H936.312V532H974.312V562Z" fill="#E9F3F8"/>
<path fill-rule="evenodd" clip-rule="evenodd" d="M121 625.709C120.72 629.665 120.283 634.09 119.606 638.739L131.831 625.181L131.899 625.408C131.151 622.145 129.947 619.003 128.323 616.076L128.401 616.291L121 625.709Z" fill="#2F7DF7"/>
<path fill-rule="evenodd" clip-rule="evenodd" d="M121.048 625.016L128.217 615.892C126.692 613.109 124.486 610.758 121.805 609.059C121.673 608.981 121.541 608.907 121.409 608.834C121.448 609.912 121.636 616.237 121.048 625.016Z" fill="#2F7DF7"/>
<path fill-rule="evenodd" clip-rule="evenodd" d="M114.58 660.783C114.265 661.742 113.94 662.684 113.604 663.609L131.609 653.052L131.634 653.317C132.01 651.675 132.324 650.034 132.574 648.392L114.596 660.903L114.58 660.783Z" fill="#2F7DF7"/>
<path fill-rule="evenodd" clip-rule="evenodd" d="M117.084 651.922L133.3 638.549L133.346 638.799C133.403 634.377 132.936 629.964 131.955 625.652L119.497 639.469C118.842 643.824 118.038 647.975 117.084 651.922Z" fill="#2F7DF7"/>
<path fill-rule="evenodd" clip-rule="evenodd" d="M119.219 639.206L99.8156 617.557L99.9194 617.312C98.0955 619.88 96.5357 622.626 95.2638 625.508L117.406 649.082C118.164 645.641 118.757 642.31 119.219 639.206Z" fill="#2F7DF7"/>
<path fill-rule="evenodd" clip-rule="evenodd" d="M95.0543 625.995L95.0551 625.996C95.0901 625.916 95.1205 625.828 95.1558 625.748L95.0543 625.995Z" fill="#2F7DF7"/>
<path fill-rule="evenodd" clip-rule="evenodd" d="M93.9748 628.651L93.875 628.898C93.9067 628.813 93.9434 628.736 93.9754 628.651L93.9748 628.651Z" fill="#2F7DF7"/>
<path fill-rule="evenodd" clip-rule="evenodd" d="M117.278 649.656L95.0552 625.996C94.6796 626.856 94.3196 627.741 93.9753 628.651L116.688 652.159C116.895 651.32 117.091 650.486 117.278 649.656Z" fill="#2F7DF7"/>
<path fill-rule="evenodd" clip-rule="evenodd" d="M132.622 648.076C133.064 645.1 133.305 642.098 133.343 639.09L116.908 652.644C116.257 655.272 115.541 657.799 114.759 660.224L132.587 647.818L132.622 648.076Z" fill="#2F7DF7"/>
<path fill-rule="evenodd" clip-rule="evenodd" d="M91.0283 649.763L109.017 673.232C110.495 670.375 111.8 667.432 112.926 664.42L90.9762 641.365C90.7587 644.248 90.7345 647.141 90.904 650.026L91.0283 649.763Z" fill="#2F7DF7"/>
<path fill-rule="evenodd" clip-rule="evenodd" d="M121.081 608.815L121.242 608.742C117.302 606.638 113.037 606.864 108.95 608.998L120.731 625C121.365 615.502 121.085 608.909 121.081 608.815Z" fill="#2F7DF7"/>
<path fill-rule="evenodd" clip-rule="evenodd" d="M113.021 665.179C111.988 667.89 110.809 670.542 109.488 673.125L127.582 663.763L127.6 664.023C128.963 661.72 130.029 659.254 130.773 656.683C131.06 655.672 131.322 654.657 131.56 653.64L113.34 664.323C113.234 664.609 113.129 664.896 113.021 665.179Z" fill="#2F7DF7"/>
<path fill-rule="evenodd" clip-rule="evenodd" d="M120.682 625.707L108.631 609.338L108.744 609.105C105.295 611.1 102.33 613.836 100.064 617.114L119.309 638.587C119.975 633.99 120.407 629.617 120.682 625.707Z" fill="#2F7DF7"/>
<path fill-rule="evenodd" clip-rule="evenodd" d="M113.123 663.891C114.465 660.231 115.608 656.502 116.549 652.719L93.7793 629.153C93.2372 630.625 92.7394 632.156 92.2858 633.746C91.6563 636.026 91.2362 638.359 91.0305 640.715L113.106 663.901L113.123 663.891Z" fill="#2F7DF7"/>
<path fill-rule="evenodd" clip-rule="evenodd" d="M136.51 689.315C133.772 692.184 130.612 695.312 127.126 698.462L145.19 695.817L145.097 696.034C146.602 693.044 147.678 689.857 148.294 686.567L148.218 686.782L136.51 689.315Z" fill="#2F7DF7"/>
<path fill-rule="evenodd" clip-rule="evenodd" d="M147.75 677.005C147.699 676.861 147.644 676.72 147.589 676.579C146.932 677.434 143.042 682.426 136.99 688.811L148.33 686.357C148.931 683.241 148.731 680.023 147.75 677.005Z" fill="#2F7DF7"/>
<path fill-rule="evenodd" clip-rule="evenodd" d="M109.195 712.234C108.341 712.772 107.49 713.29 106.641 713.788L127.242 717.141L127.092 717.361C128.429 716.336 129.717 715.272 130.957 714.168L109.131 712.337L109.195 712.234Z" fill="#2F7DF7"/>
<path fill-rule="evenodd" clip-rule="evenodd" d="M116.775 707.007L137.794 707.049L137.67 707.271C140.534 703.902 142.99 700.206 144.985 696.259L126.576 698.954C123.295 701.891 120.028 704.575 116.775 707.007Z" fill="#2F7DF7"/>
<path fill-rule="evenodd" clip-rule="evenodd" d="M109.689 711.918L131.333 713.733L131.195 713.955C133.434 711.945 135.535 709.786 137.483 707.493L116.18 707.45C114.002 709.059 111.838 710.549 109.689 711.918Z" fill="#2F7DF7"/>
<path fill-rule="evenodd" clip-rule="evenodd" d="M83.1791 722.629C83.3324 722.474 83.4947 722.305 83.6547 722.141C88.0681 721.438 92.3808 720.206 96.4994 718.471L97.0877 702.872C97.2622 702.475 97.4318 702.075 97.5964 701.673L96.9704 718.273C99.9308 717.016 102.813 715.582 105.602 713.979L103.592 684.981C103.747 684.901 103.903 684.819 104.063 684.734L106.071 713.695L106.091 713.698C109.458 711.735 112.718 709.592 115.855 707.279L113.666 678.742C113.821 678.629 113.976 678.518 114.131 678.402L116.32 706.936C117.014 706.422 117.697 705.905 118.37 705.385L116.564 676.497C116.719 676.371 116.874 676.244 117.028 676.115L118.835 705.024C121.613 702.858 124.194 700.67 126.53 698.574L125.394 669.524L125.63 669.402C124.824 669.613 124.004 669.862 123.177 670.134C124.732 668.358 126.13 666.452 127.357 664.436L109.089 673.887C107.825 676.29 106.403 678.605 104.832 680.82C104.505 681.128 104.179 681.436 103.857 681.758L103.881 682.104C103.732 682.301 103.584 682.499 103.433 682.691L103.401 682.224C103.17 682.46 102.945 682.711 102.717 682.953C105.03 680.065 107.061 676.961 108.78 673.684L90.923 650.387C91.0447 652.47 91.2482 654.566 91.5101 656.645C89.8522 653.949 87.8388 651.489 85.5241 649.331L85.6648 649.511L81.5378 660.756C82.4946 664.605 83.4458 668.948 84.2392 673.579L91.5731 657.134C91.6066 657.391 91.6421 657.646 91.6773 657.902L84.3611 674.307C85.085 678.65 85.6032 682.847 85.9159 686.896L94.697 673.103C94.7472 673.301 94.7973 673.499 94.8475 673.695L85.9717 687.636C86.1648 690.337 86.2645 692.962 86.2707 695.51L97.0046 681.348C97.0619 681.535 97.1178 681.715 97.1735 681.894L86.3259 696.206L86.2731 696.096C86.2701 697.106 86.2519 698.102 86.2185 699.085L98.3263 685.453C98.3906 685.643 98.4504 685.818 98.5055 685.978L86.1881 699.846C86.1755 700.151 86.1643 700.457 86.1487 700.759C86.0046 703.656 85.7029 706.544 85.2449 709.408L86.4133 708.225C86.192 708.684 85.9764 709.137 85.7667 709.583L85.1017 710.256C85.0255 710.694 84.9385 711.121 84.8548 711.552C84.6095 712.091 84.3731 712.617 84.1456 713.129C84.3652 712.146 84.57 711.157 84.7449 710.159L60.5614 693.522C66.8707 709.664 78.7517 725.018 79.5123 725.993C80.1298 724.84 80.6908 723.653 81.2059 722.441C81.3555 722.427 81.5052 722.413 81.6547 722.397C81.593 722.546 81.5287 722.693 81.4657 722.84C81.3903 722.848 81.3139 722.86 81.2387 722.868C81.2973 722.884 81.3676 722.903 81.4313 722.921C81.0684 723.767 80.6925 724.599 80.2892 725.403C80.817 724.928 81.621 724.178 82.5822 723.226C88.2689 724.678 103.589 727.782 116.706 723.196L96.6083 718.824C92.3074 720.646 87.7962 721.924 83.1791 722.629ZM97.3016 697.198L97.7836 696.71L97.756 697.441L97.2741 697.929L97.3016 697.198Z" fill="#2F7DF7"/>
<path fill-rule="evenodd" clip-rule="evenodd" d="M147.348 676.354L147.518 676.402C145.827 672.268 142.398 669.722 137.888 668.758L136.756 688.597C143.302 681.687 147.291 676.43 147.348 676.354Z" fill="#2F7DF7"/>
<path fill-rule="evenodd" clip-rule="evenodd" d="M105.191 714.625C102.666 716.054 100.066 717.345 97.4012 718.491L117.308 722.822L117.156 723.034C119.675 722.13 122.07 720.91 124.282 719.404C125.148 718.808 125.997 718.194 126.829 717.562L105.983 714.169C105.719 714.322 105.454 714.476 105.191 714.625Z" fill="#2F7DF7"/>
<path fill-rule="evenodd" clip-rule="evenodd" d="M126.995 698.155C130.44 695.039 133.561 691.946 136.267 689.111L137.426 668.817L137.662 668.709C133.732 668.046 129.704 668.262 125.868 669.342L126.995 698.155Z" fill="#2F7DF7"/>
<path fill-rule="evenodd" clip-rule="evenodd" d="M85.3666 649.189C83.0558 647.013 80.231 645.459 77.1563 644.672C77.0072 644.638 76.8589 644.609 76.7107 644.581C77.081 645.593 79.2148 651.551 81.3687 660.081L85.3666 649.189Z" fill="#2F7DF7"/>
<path fill-rule="evenodd" clip-rule="evenodd" d="M84.0153 674.142L58.8706 659.551L58.8937 659.286C57.9528 662.292 57.3182 665.385 56.9993 668.519L85.3435 684.095C85.0016 680.588 84.5352 677.237 84.0153 674.142Z" fill="#2F7DF7"/>
<path fill-rule="evenodd" clip-rule="evenodd" d="M56.9507 669.047L56.9517 669.048C56.9602 668.961 56.962 668.868 56.9709 668.781L56.9507 669.047Z" fill="#2F7DF7"/>
<path fill-rule="evenodd" clip-rule="evenodd" d="M56.7448 671.906L56.7263 672.173C56.7302 672.082 56.7412 671.997 56.7455 671.907L56.7448 671.906Z" fill="#2F7DF7"/>
<path fill-rule="evenodd" clip-rule="evenodd" d="M85.3996 684.68L56.9517 669.048C56.8605 669.982 56.7918 670.935 56.7456 671.907L85.6125 687.243C85.5496 686.381 85.4787 685.527 85.3996 684.68Z" fill="#2F7DF7"/>
<path fill-rule="evenodd" clip-rule="evenodd" d="M85.8239 700.066L57.8232 684.926C58.5073 687.734 59.3787 690.493 60.4316 693.185L60.4684 692.896L84.8302 709.655C85.3528 706.482 85.6846 703.28 85.8239 700.066Z" fill="#2F7DF7"/>
<path fill-rule="evenodd" clip-rule="evenodd" d="M76.3921 644.663L76.5231 644.545C72.1259 643.761 68.1397 645.294 64.9117 648.587L81.0624 660.164C78.7298 650.936 76.4254 644.752 76.3921 644.663Z" fill="#2F7DF7"/>
<path fill-rule="evenodd" clip-rule="evenodd" d="M81.2348 660.852L64.7137 649.009L64.7491 648.753C62.0855 651.717 60.1119 655.234 58.9702 659.052L83.9101 673.525C83.1225 668.948 82.181 664.656 81.2348 660.852Z" fill="#2F7DF7"/>
<path fill-rule="evenodd" clip-rule="evenodd" d="M85.8478 699.503C85.9926 695.607 85.9275 691.707 85.6528 687.819L56.7142 672.445C56.6536 674.012 56.6534 675.622 56.7135 677.275C56.8197 679.638 57.1411 681.986 57.6739 684.291L85.8345 699.518L85.8478 699.503Z" fill="#2F7DF7"/>
<path fill-rule="evenodd" clip-rule="evenodd" d="M977 622.709C976.721 626.665 976.283 631.09 975.606 635.739L987.831 622.181L987.899 622.408C987.151 619.145 985.947 616.003 984.323 613.076L984.401 613.291L977 622.709Z" fill="#2F7DF7"/>
<path fill-rule="evenodd" clip-rule="evenodd" d="M977.048 622.016L984.217 612.892C982.692 610.109 980.486 607.758 977.805 606.059C977.673 605.981 977.541 605.907 977.409 605.834C977.449 606.912 977.636 613.237 977.048 622.016Z" fill="#2F7DF7"/>
<path fill-rule="evenodd" clip-rule="evenodd" d="M970.58 657.783C970.265 658.742 969.94 659.684 969.604 660.609L987.609 650.052L987.634 650.317C988.01 648.675 988.324 647.034 988.574 645.392L970.596 657.903L970.58 657.783Z" fill="#2F7DF7"/>
<path fill-rule="evenodd" clip-rule="evenodd" d="M973.084 648.922L989.3 635.549L989.346 635.799C989.403 631.377 988.936 626.964 987.956 622.652L975.497 636.469C974.842 640.824 974.038 644.975 973.084 648.922Z" fill="#2F7DF7"/>
<path fill-rule="evenodd" clip-rule="evenodd" d="M975.219 636.206L955.816 614.557L955.919 614.312C954.096 616.88 952.536 619.626 951.264 622.508L973.406 646.082C974.164 642.641 974.757 639.31 975.219 636.206Z" fill="#2F7DF7"/>
<path fill-rule="evenodd" clip-rule="evenodd" d="M951.054 622.995L951.055 622.996C951.09 622.916 951.121 622.828 951.156 622.748L951.054 622.995Z" fill="#2F7DF7"/>
<path fill-rule="evenodd" clip-rule="evenodd" d="M973.278 646.656L951.055 622.996C950.68 623.856 950.32 624.741 949.975 625.651L972.688 649.159C972.895 648.32 973.091 647.486 973.278 646.656Z" fill="#2F7DF7"/>
<path fill-rule="evenodd" clip-rule="evenodd" d="M949.975 625.651L949.875 625.898C949.907 625.813 949.943 625.736 949.975 625.651L949.975 625.651Z" fill="#2F7DF7"/>
<path fill-rule="evenodd" clip-rule="evenodd" d="M988.622 645.076C989.064 642.1 989.305 639.098 989.343 636.09L972.908 649.644C972.257 652.272 971.541 654.799 970.759 657.224L988.587 644.818L988.622 645.076Z" fill="#2F7DF7"/>
<path fill-rule="evenodd" clip-rule="evenodd" d="M947.028 646.763L965.017 670.232C966.495 667.375 967.8 664.432 968.926 661.42L946.976 638.365C946.759 641.248 946.735 644.141 946.904 647.026L947.028 646.763Z" fill="#2F7DF7"/>
<path fill-rule="evenodd" clip-rule="evenodd" d="M977.081 605.815L977.242 605.742C973.302 603.638 969.037 603.864 964.95 605.998L976.731 622C977.365 612.502 977.085 605.909 977.081 605.815Z" fill="#2F7DF7"/>
<path fill-rule="evenodd" clip-rule="evenodd" d="M969.021 662.179C967.988 664.89 966.809 667.542 965.488 670.125L983.582 660.763L983.6 661.023C984.963 658.72 986.029 656.254 986.773 653.683C987.06 652.672 987.322 651.657 987.56 650.64L969.34 661.323C969.234 661.609 969.129 661.896 969.021 662.179Z" fill="#2F7DF7"/>
<path fill-rule="evenodd" clip-rule="evenodd" d="M976.682 622.707L964.631 606.338L964.744 606.105C961.295 608.1 958.33 610.836 956.064 614.114L975.309 635.587C975.975 630.99 976.407 626.617 976.682 622.707Z" fill="#2F7DF7"/>
<path fill-rule="evenodd" clip-rule="evenodd" d="M969.123 660.891C970.465 657.231 971.608 653.502 972.549 649.719L949.779 626.153C949.237 627.625 948.739 629.156 948.286 630.746C947.656 633.026 947.236 635.359 947.031 637.715L969.106 660.901L969.123 660.891Z" fill="#2F7DF7"/>
<path fill-rule="evenodd" clip-rule="evenodd" d="M992.51 686.315C989.772 689.184 986.612 692.312 983.126 695.462L1001.19 692.817L1001.1 693.034C1002.6 690.044 1003.68 686.857 1004.29 683.567L1004.22 683.782L992.51 686.315Z" fill="#2F7DF7"/>
<path fill-rule="evenodd" clip-rule="evenodd" d="M1003.75 674.005C1003.7 673.861 1003.64 673.72 1003.59 673.579C1002.93 674.434 999.042 679.426 992.99 685.811L1004.33 683.357C1004.93 680.241 1004.73 677.023 1003.75 674.005Z" fill="#2F7DF7"/>
<path fill-rule="evenodd" clip-rule="evenodd" d="M965.195 709.234C964.341 709.772 963.49 710.29 962.641 710.788L983.242 714.141L983.092 714.361C984.429 713.336 985.717 712.272 986.957 711.168L965.131 709.337L965.195 709.234Z" fill="#2F7DF7"/>
<path fill-rule="evenodd" clip-rule="evenodd" d="M972.775 704.007L993.794 704.049L993.67 704.271C996.534 700.902 998.99 697.206 1000.98 693.259L982.576 695.954C979.295 698.891 976.028 701.575 972.775 704.007Z" fill="#2F7DF7"/>
<path fill-rule="evenodd" clip-rule="evenodd" d="M965.689 708.918L987.333 710.733L987.195 710.955C989.434 708.945 991.535 706.786 993.483 704.493L972.18 704.45C970.002 706.059 967.838 707.549 965.689 708.918Z" fill="#2F7DF7"/>
<path fill-rule="evenodd" clip-rule="evenodd" d="M939.179 719.629C939.332 719.474 939.495 719.305 939.655 719.141C944.068 718.438 948.381 717.206 952.499 715.471L953.088 699.872C953.262 699.475 953.432 699.075 953.596 698.673L952.97 715.273C955.931 714.016 958.813 712.582 961.602 710.979L959.592 681.981C959.747 681.901 959.903 681.819 960.063 681.734L962.071 710.695L962.091 710.698C965.458 708.735 968.718 706.592 971.855 704.279L969.666 675.742C969.821 675.629 969.976 675.518 970.131 675.402L972.32 703.936C973.014 703.422 973.697 702.905 974.37 702.385L972.564 673.497C972.719 673.371 972.874 673.244 973.028 673.115L974.835 702.024C977.613 699.858 980.194 697.67 982.53 695.574L981.394 666.524L981.63 666.402C980.824 666.613 980.004 666.862 979.177 667.134C980.732 665.358 982.13 663.452 983.357 661.436L965.089 670.887C963.825 673.29 962.402 675.605 960.832 677.82C960.505 678.128 960.179 678.436 959.857 678.758L959.881 679.104C959.732 679.301 959.584 679.499 959.433 679.691L959.4 679.224C959.17 679.46 958.945 679.711 958.717 679.953C961.03 677.065 963.061 673.961 964.78 670.684L946.923 647.387C947.045 649.47 947.248 651.566 947.51 653.645C945.852 650.949 943.839 648.489 941.524 646.331L941.665 646.511L937.538 657.756C938.495 661.605 939.446 665.948 940.239 670.579L947.573 654.134C947.607 654.391 947.642 654.646 947.677 654.902L940.361 671.307C941.085 675.65 941.603 679.847 941.916 683.896L950.697 670.103C950.747 670.301 950.797 670.499 950.847 670.695L941.972 684.636C942.165 687.337 942.264 689.962 942.271 692.51L953.005 678.348C953.062 678.535 953.118 678.715 953.173 678.894L942.326 693.206L942.273 693.096C942.27 694.106 942.252 695.102 942.219 696.085L954.326 682.453C954.391 682.643 954.45 682.818 954.506 682.978L942.188 696.846C942.176 697.151 942.164 697.457 942.149 697.759C942.005 700.656 941.703 703.543 941.245 706.408L942.413 705.225C942.192 705.684 941.977 706.137 941.767 706.583L941.102 707.256C941.026 707.694 940.939 708.121 940.855 708.552C940.61 709.091 940.373 709.617 940.146 710.129C940.365 709.146 940.57 708.157 940.745 707.159L916.561 690.522C922.871 706.664 934.752 722.018 935.512 722.993C936.13 721.84 936.691 720.653 937.206 719.441C937.356 719.427 937.505 719.413 937.655 719.397C937.593 719.546 937.529 719.693 937.466 719.84C937.39 719.848 937.314 719.86 937.239 719.868C937.297 719.884 937.368 719.903 937.431 719.921C937.069 720.767 936.693 721.599 936.289 722.403C936.817 721.928 937.621 721.178 938.582 720.226C944.269 721.678 959.589 724.782 972.706 720.196L952.608 715.824C948.307 717.646 943.796 718.924 939.179 719.629ZM953.302 694.198L953.784 693.71L953.756 694.441L953.274 694.929L953.302 694.198Z" fill="#2F7DF7"/>
<path fill-rule="evenodd" clip-rule="evenodd" d="M1003.35 673.354L1003.52 673.402C1001.83 669.268 998.398 666.722 993.888 665.758L992.756 685.597C999.302 678.687 1003.29 673.43 1003.35 673.354Z" fill="#2F7DF7"/>
<path fill-rule="evenodd" clip-rule="evenodd" d="M961.191 711.625C958.666 713.054 956.066 714.345 953.401 715.491L973.308 719.822L973.156 720.034C975.675 719.13 978.07 717.91 980.282 716.404C981.148 715.808 981.997 715.194 982.829 714.562L961.983 711.169C961.719 711.322 961.454 711.476 961.191 711.625Z" fill="#2F7DF7"/>
<path fill-rule="evenodd" clip-rule="evenodd" d="M982.995 695.155C986.44 692.039 989.561 688.946 992.267 686.111L993.426 665.817L993.662 665.709C989.732 665.046 985.704 665.262 981.868 666.342L982.995 695.155Z" fill="#2F7DF7"/>
<path fill-rule="evenodd" clip-rule="evenodd" d="M941.367 646.189C939.056 644.013 936.231 642.459 933.156 641.672C933.007 641.638 932.859 641.609 932.711 641.581C933.081 642.593 935.215 648.551 937.369 657.081L941.367 646.189Z" fill="#2F7DF7"/>
<path fill-rule="evenodd" clip-rule="evenodd" d="M940.015 671.142L914.871 656.551L914.894 656.286C913.953 659.292 913.318 662.385 912.999 665.519L941.344 681.095C941.002 677.588 940.535 674.237 940.015 671.142Z" fill="#2F7DF7"/>
<path fill-rule="evenodd" clip-rule="evenodd" d="M912.745 668.906L912.726 669.173C912.73 669.082 912.741 668.997 912.746 668.907L912.745 668.906Z" fill="#2F7DF7"/>
<path fill-rule="evenodd" clip-rule="evenodd" d="M912.951 666.047L912.952 666.048C912.96 665.961 912.962 665.868 912.971 665.781L912.951 666.047Z" fill="#2F7DF7"/>
<path fill-rule="evenodd" clip-rule="evenodd" d="M941.4 681.68L912.952 666.048C912.86 666.982 912.792 667.935 912.746 668.907L941.612 684.243C941.55 683.381 941.479 682.527 941.4 681.68Z" fill="#2F7DF7"/>
<path fill-rule="evenodd" clip-rule="evenodd" d="M941.824 697.066L913.823 681.926C914.507 684.734 915.379 687.493 916.432 690.185L916.468 689.896L940.83 706.655C941.353 703.482 941.685 700.28 941.824 697.066Z" fill="#2F7DF7"/>
<path fill-rule="evenodd" clip-rule="evenodd" d="M932.392 641.663L932.523 641.545C928.126 640.761 924.14 642.294 920.912 645.587L937.062 657.164C934.73 647.936 932.425 641.752 932.392 641.663Z" fill="#2F7DF7"/>
<path fill-rule="evenodd" clip-rule="evenodd" d="M937.235 657.852L920.714 646.009L920.749 645.753C918.086 648.717 916.112 652.234 914.97 656.052L939.91 670.525C939.123 665.948 938.181 661.656 937.235 657.852Z" fill="#2F7DF7"/>
<path fill-rule="evenodd" clip-rule="evenodd" d="M941.848 696.503C941.993 692.607 941.928 688.707 941.653 684.819L912.714 669.445C912.654 671.012 912.653 672.622 912.714 674.275C912.82 676.638 913.141 678.986 913.674 681.291L941.835 696.518L941.848 696.503Z" fill="#2F7DF7"/>
<path fill-rule="evenodd" clip-rule="evenodd" d="M61.8115 727H1007.81V740.535C1007.81 752.39 998.201 762 986.347 762H83.2761C71.4215 762 61.8115 752.39 61.8115 740.535V727Z" fill="#2F2E41"/>
<path d="M1007.81 716H61.8115V735H1007.81V716Z" fill="#3F3D56"/>
<path fill-rule="evenodd" clip-rule="evenodd" d="M794.955 65.974L805.819 72.8638L799.223 60.8702C801.091 59.3794 803.403 58.5542 805.793 58.5252C805.851 58.5252 805.91 58.5257 805.968 58.5267C806.723 58.5389 807.477 58.4831 808.222 58.36L811.904 60.6949L810.326 57.8251C812.934 56.9153 815.189 55.2044 816.767 52.9366L823.357 57.1158L819.194 49.5463C823.047 44.9201 828.243 42.0835 833.959 42.0835C840.812 42.0835 846.917 46.1592 850.857 52.5094C853.229 56.3772 857.493 58.6761 862.027 58.532C862.15 58.5275 862.273 58.5252 862.396 58.5252C869.961 58.5252 876.094 67.1031 876.094 77.6846C876.094 88.266 869.961 96.8439 862.396 96.8439C860.732 96.8377 859.095 96.4278 857.624 95.6493C852.412 93.1162 846.351 92.9977 841.044 95.3252C836.563 97.3387 831.438 97.3506 826.948 95.3578C821.683 93.0753 815.687 93.1912 810.514 95.6755C809.057 96.4373 807.438 96.838 805.793 96.8439C798.228 96.8439 792.094 88.266 792.094 77.6846C792.05 73.6029 793.034 69.5758 794.955 65.974Z" fill="#E9F3F8"/>
<path fill-rule="evenodd" clip-rule="evenodd" d="M242.197 122.244L249.108 126.627L244.912 118.997C246.1 118.049 247.571 117.524 249.091 117.505C249.128 117.505 249.166 117.506 249.203 117.506C249.683 117.514 250.163 117.479 250.637 117.4L252.979 118.886L251.975 117.06C253.634 116.481 255.068 115.393 256.072 113.95L260.264 116.609L257.616 111.794C259.874 108.881 263.323 107.138 267.008 107.047C271.367 107.047 275.251 109.639 277.758 113.679C279.266 116.139 281.979 117.601 284.863 117.51C284.941 117.507 285.019 117.505 285.098 117.505C289.91 117.505 293.812 122.962 293.812 129.693C293.812 136.424 289.91 141.881 285.098 141.881C284.039 141.877 282.998 141.616 282.062 141.121C278.747 139.51 274.891 139.434 271.515 140.915C268.665 142.196 265.404 142.203 262.548 140.936C259.199 139.484 255.385 139.557 252.094 141.138C251.167 141.622 250.137 141.877 249.091 141.881C244.279 141.881 240.377 136.424 240.377 129.693C240.349 127.097 240.975 124.535 242.197 122.244Z" fill="#E9F3F8"/>
<path fill-rule="evenodd" clip-rule="evenodd" d="M56.1968 145.738L63.1081 150.121L58.9119 142.492C60.1003 141.543 61.571 141.018 63.0913 141C63.1284 141 63.1655 141 63.2025 141.001C63.6827 141.009 64.1626 140.973 64.6365 140.895L66.9786 142.38L65.9746 140.555C67.6341 139.976 69.0682 138.888 70.0721 137.445L74.2643 140.103L71.6158 135.288C73.8744 132.375 77.3232 130.632 81.0081 130.541C85.3675 130.541 89.2508 133.134 91.7578 137.173C93.2663 139.634 95.9785 141.096 98.8631 141.004C98.941 141.001 99.0192 141 99.0976 141C103.91 141 107.812 146.457 107.812 153.188C107.812 159.919 103.91 165.375 99.0976 165.375C98.0392 165.371 96.9977 165.111 96.0623 164.615C92.7468 163.004 88.8912 162.929 85.5152 164.409C82.6649 165.69 79.4043 165.698 76.5482 164.43C73.1992 162.978 69.3848 163.052 66.0944 164.632C65.1673 165.117 64.1374 165.372 63.0912 165.375C58.2786 165.375 54.3772 159.919 54.3772 153.188C54.3492 150.591 54.975 148.029 56.1968 145.738Z" fill="#E9F3F8"/>
<path fill-rule="evenodd" clip-rule="evenodd" d="M305.72 596.864L304.513 598.071C304.513 598.071 304.915 611.349 305.318 614.166C305.72 616.982 307.33 621.811 306.122 625.432C304.915 629.054 304.513 631.87 304.915 632.272C305.318 632.675 304.513 634.284 304.513 634.284L307.732 632.272L312.963 620.201L310.549 607.325L305.72 596.864Z" fill="#2F7DF7"/>
<path opacity="0.1" fill-rule="evenodd" clip-rule="evenodd" d="M305.72 596.864L304.513 598.071C304.513 598.071 304.915 611.349 305.318 614.166C305.72 616.982 307.33 621.811 306.122 625.432C304.915 629.054 304.513 631.87 304.915 632.272C305.318 632.675 304.513 634.284 304.513 634.284L307.732 632.272L312.963 620.201L310.549 607.325L305.72 596.864Z" fill="black"/>
<path fill-rule="evenodd" clip-rule="evenodd" d="M327.046 722.001C327.046 722.001 327.046 717.575 326.241 716.77C325.436 715.966 324.229 713.149 322.62 713.149C321.01 713.149 315.377 714.758 315.377 715.161C315.423 716.417 315.146 717.664 314.572 718.782C313.767 719.989 309.341 724.818 313.767 725.622C316.74 726.111 319.784 725.386 322.217 723.611C322.62 723.208 324.229 722.806 324.631 723.208C325.034 723.611 327.046 722.001 327.046 722.001Z" fill="#2F7DF7"/>
<path fill-rule="evenodd" clip-rule="evenodd" d="M338.312 714.758L340.726 719.184C340.726 719.184 341.531 723.208 342.738 723.61H343.945C343.945 723.61 345.152 728.037 347.969 727.634C350.786 727.232 354.005 725.622 354.005 724.818C354.005 724.013 354.005 721.599 352.797 720.794C351.105 719.412 349.493 717.934 347.969 716.368L345.957 714.356L338.312 714.758Z" fill="#2F7DF7"/>
<path fill-rule="evenodd" clip-rule="evenodd" d="M307.432 567.367C305.861 568.169 304.777 569.684 304.526 571.431C304.302 574.304 307.141 577.011 306.228 579.743C305.709 581.295 304.094 582.3 303.629 583.868C303.384 585.119 303.568 586.416 304.15 587.55C304.785 589.105 305.559 590.6 306.461 592.017C308.157 594.68 310.365 597.207 310.818 600.332C311.073 601.44 310.781 602.603 310.033 603.46C310.849 602.842 311.783 602.398 312.778 602.154C316.89 600.78 320.711 598.652 324.045 595.879C325.256 595.028 326.168 593.816 326.65 592.416C327.264 589.944 325.388 587.471 325.568 584.93C325.683 583.304 326.621 581.869 327.152 580.329C328.085 577.23 327.714 573.885 326.125 571.066C324.81 568.338 322.432 566.27 319.548 565.345C317.353 564.834 315.063 564.9 312.901 565.537C311.012 565.929 309.177 566.543 307.432 567.367Z" fill="#2F2E41"/>
<path fill-rule="evenodd" clip-rule="evenodd" d="M309.697 589.679C311.502 586.326 314.989 584.222 318.797 584.189C325.235 584.189 324.028 583.787 324.028 583.787L322.016 591.834L317.992 595.858L309.697 589.679Z" fill="#2F7DF7"/>
<path fill-rule="evenodd" clip-rule="evenodd" d="M311.353 581.171C311.353 581.171 314.975 587.207 312.56 589.621C310.146 592.035 311.353 594.449 311.756 594.852C312.158 595.254 323.424 596.059 323.424 596.059L323.827 590.426L325.034 585.597C325.034 585.597 318.596 584.39 319.401 581.574C320.206 578.757 311.353 581.171 311.353 581.171Z" fill="#FBBEBE"/>
<path opacity="0.1" fill-rule="evenodd" clip-rule="evenodd" d="M311.353 581.171C311.353 581.171 314.975 587.207 312.56 589.621C310.146 592.035 311.353 594.449 311.756 594.852C312.158 595.254 323.424 596.059 323.424 596.059L323.827 590.426L325.034 585.597C325.034 585.597 318.596 584.39 319.401 581.574C320.206 578.757 311.353 581.171 311.353 581.171Z" fill="black"/>
<path fill-rule="evenodd" clip-rule="evenodd" d="M339.519 638.308C339.089 639.689 338.55 641.034 337.91 642.332C337.507 642.734 336.3 639.515 336.3 639.515L337.507 636.698L339.519 638.308Z" fill="#FBBEBE"/>
<path fill-rule="evenodd" clip-rule="evenodd" d="M334.892 620L336.501 629.255H312.359L313.566 620H334.892Z" fill="#FBBEBE"/>
<path d="M315.779 584.39C320.002 584.39 323.424 580.968 323.424 576.745C323.424 572.523 320.002 569.1 315.779 569.1C311.557 569.1 308.134 572.523 308.134 576.745C308.134 580.968 311.557 584.39 315.779 584.39Z" fill="#FBBEBE"/>
<path fill-rule="evenodd" clip-rule="evenodd" d="M317.389 592.438C317.389 592.438 312.963 592.84 312.963 592.035C312.963 591.231 312.56 588.816 311.756 589.219C310.951 589.621 305.72 590.023 306.122 591.231C306.525 592.438 307.33 594.852 306.525 594.852C305.822 594.996 305.209 595.421 304.828 596.03C304.448 596.638 304.334 597.376 304.513 598.071C304.915 600.083 309.341 612.154 309.341 612.154C309.341 612.154 309.744 616.178 310.951 617.385C311.961 618.687 311.961 620.508 310.951 621.811C310.146 622.616 312.963 623.42 314.17 625.03C315.377 626.639 324.631 625.432 325.034 625.03C325.436 624.627 335.093 624.627 335.898 623.823C336.703 623.018 335.496 620.604 335.496 620.604C335.496 620.604 335.093 616.982 335.496 615.775C335.898 614.568 333.886 594.852 332.679 593.645C331.472 592.438 336.3 588.816 336.3 588.816C336.3 588.816 335.495 585.597 330.265 585.195C330.265 585.195 328.655 582.781 327.046 582.781C325.436 582.781 321.942 584.653 321.942 584.653C321.942 584.653 321.01 590.024 319.803 590.426C318.849 590.894 318.021 591.583 317.389 592.438Z" fill="#2F7DF7"/>
<path fill-rule="evenodd" clip-rule="evenodd" d="M333.484 587.609L336.3 588.816C336.3 588.816 344.348 613.763 343.543 618.592C342.738 623.42 340.726 639.917 339.519 639.917C338.312 639.917 335.898 637.503 335.898 637.503V633.479C335.898 632.675 334.691 630.26 335.495 630.26C336.3 630.26 337.507 629.456 336.703 628.651C335.898 627.846 335.093 626.639 335.898 625.432C336.703 624.225 337.105 623.823 336.703 622.615C336.3 621.408 335.495 620.201 336.3 619.396C337.105 618.592 334.288 614.568 334.288 614.568L329.862 596.864L330.667 589.621L333.484 587.609Z" fill="#2F7DF7"/>
<path fill-rule="evenodd" clip-rule="evenodd" d="M335.093 625.834C335.093 625.834 319.803 624.627 317.791 624.627C315.779 624.627 311.266 622.733 311.266 622.733C311.266 622.733 299.685 634.284 303.708 653.196C307.732 672.107 308.537 695.445 310.951 702.285C312.592 707.162 313.935 712.133 314.975 717.173C314.975 717.173 318.998 709.93 326.643 717.977C326.643 717.977 327.448 711.942 326.241 709.528C325.034 707.113 323.424 694.237 323.424 694.237C323.424 694.237 320.608 673.717 320.608 671.302C320.608 668.888 318.998 648.367 319.401 647.965C319.803 647.562 321.815 663.657 322.217 666.474C322.62 669.29 323.827 691.018 325.034 693.433C326.241 695.847 331.874 715.161 335.093 716.368C338.312 717.575 349.176 715.965 348.774 715.161C348.371 714.356 345.555 709.93 344.75 708.723L341.531 703.894L333.886 677.74L337.507 645.953C337.507 645.953 339.519 625.432 335.093 625.834Z" fill="#2F2E41"/>
<path fill-rule="evenodd" clip-rule="evenodd" d="M320.436 575.739H310.632C309.773 575.739 309.042 575.114 308.908 574.265L307.933 568.094H323.223L321.856 574.587C321.715 575.259 321.123 575.739 320.436 575.739Z" fill="#2F2E41"/>
<path fill-rule="evenodd" clip-rule="evenodd" d="M825.715 573.834H841.184V595.932C837.081 595.932 833.147 594.303 830.246 591.402C827.345 588.501 825.715 584.566 825.715 580.464V573.834Z" fill="#2F2E41"/>
<path fill-rule="evenodd" clip-rule="evenodd" d="M816.692 703.292L815.587 708.817H823.321L823.689 703.292H816.692Z" fill="#A0616A"/>
<path fill-rule="evenodd" clip-rule="evenodd" d="M816.692 707.712C816.692 707.712 815.218 706.607 814.482 707.344C813.745 708.08 811.167 722.444 810.799 722.812C810.431 723.181 799.381 728.705 801.96 729.074C804.538 729.442 814.482 729.81 815.955 729.074C817.428 728.337 821.48 721.339 821.48 721.339V727.6H822.216C822.216 727.6 822.953 720.971 824.794 719.129C826.636 717.288 823.321 711.027 823.321 711.027C823.321 711.027 824.058 706.975 823.689 706.975C823.321 706.975 816.692 707.712 816.692 707.712Z" fill="#2F7DF7"/>
<path fill-rule="evenodd" clip-rule="evenodd" d="M839.526 699.425L838.421 704.95H846.156L846.524 699.425H839.526Z" fill="#A0616A"/>
<path fill-rule="evenodd" clip-rule="evenodd" d="M830.687 663.516C830.687 663.516 834.37 674.565 835.107 675.67C835.843 676.775 838.422 697.4 838.422 697.4C838.422 697.4 835.843 701.451 839.158 701.819C842.473 702.188 841 701.083 843.209 701.819C844.427 702.28 845.79 702.143 846.892 701.451C846.892 701.451 847.997 699.241 847.261 698.505C846.524 697.768 847.997 678.616 847.997 678.616L845.788 671.987L843.946 650.994C843.946 650.994 846.156 645.469 845.051 643.996C843.946 642.523 840.263 645.101 840.263 645.101L830.687 663.516Z" fill="#2F2E41"/>
<path fill-rule="evenodd" clip-rule="evenodd" d="M825.899 634.788C825.899 634.788 824.794 646.574 824.058 647.311C823.321 648.047 815.218 668.672 815.218 668.672C815.218 668.672 813.009 671.25 813.745 680.826C814.482 690.402 816.323 699.978 816.323 699.978C816.323 699.978 814.85 705.502 817.428 705.502C820.006 705.502 821.111 704.029 822.216 705.134C823.321 706.239 824.058 705.134 824.426 704.397C824.794 703.661 826.268 701.083 826.268 700.346C826.268 699.61 827.741 680.826 827.741 680.826C827.741 680.826 839.895 653.94 841 652.467C842.104 650.994 848.366 642.891 847.997 637.367L825.899 634.788Z" fill="#2F2E41"/>
<path d="M835.107 585.067C839.378 585.067 842.841 581.605 842.841 577.333C842.841 573.062 839.378 569.599 835.107 569.599C830.835 569.599 827.372 573.062 827.372 577.333C827.372 581.605 830.835 585.067 835.107 585.067Z" fill="#A0616A"/>
<path fill-rule="evenodd" clip-rule="evenodd" d="M833.634 583.963C833.634 583.963 836.58 590.592 836.948 592.434C837.317 594.275 844.314 588.751 844.314 588.751C844.314 588.751 840.631 582.489 841.736 579.543L833.634 583.963Z" fill="#A0616A"/>
<path fill-rule="evenodd" clip-rule="evenodd" d="M845.419 587.646C845.419 587.646 839.895 583.594 835.843 592.065C831.792 600.536 830.687 600.168 830.687 600.168C830.687 600.168 825.899 601.641 827.372 611.953C828.846 622.266 822.584 635.893 825.163 636.63C827.741 637.366 851.68 641.418 851.68 638.471C851.68 635.525 849.471 624.107 851.312 617.11C853.154 610.112 848.734 585.804 845.419 587.646Z" fill="#3F3D56"/>
<path fill-rule="evenodd" clip-rule="evenodd" d="M839.895 589.487C839.895 589.487 835.475 596.117 835.843 601.273C836.212 606.429 836.212 609.744 836.212 609.744C836.212 609.744 828.846 645.101 830.319 645.101C831.792 645.101 836.212 646.942 836.58 645.837C836.948 644.732 846.156 622.266 846.156 622.266C846.156 622.266 848.366 599.8 845.788 594.643C843.209 589.487 839.895 589.487 839.895 589.487Z" fill="#3F3D56"/>
<path fill-rule="evenodd" clip-rule="evenodd" d="M831.055 643.996C831.055 643.996 827.372 656.518 832.529 656.886C837.685 657.255 834.738 644.732 834.738 644.732L831.055 643.996Z" fill="#A0616A"/>
<path fill-rule="evenodd" clip-rule="evenodd" d="M840.858 702.081C840.858 702.081 839.568 701.114 838.923 701.759C838.278 702.404 836.02 714.982 835.698 715.305C835.375 715.627 825.699 720.465 827.957 720.788C830.215 721.11 838.923 721.433 840.213 720.788C841.503 720.143 845.051 714.015 845.051 714.015V719.498H845.696C845.696 719.498 846.341 713.692 847.954 712.08C849.566 710.467 846.664 704.984 846.664 704.984C846.664 704.984 847.309 701.436 846.986 701.436C846.664 701.436 840.858 702.081 840.858 702.081Z" fill="#2F7DF7"/>
<path fill-rule="evenodd" clip-rule="evenodd" d="M831.283 572.265C831.529 571.965 831.851 571.737 832.215 571.605C832.556 571.544 832.906 571.574 833.231 571.693C835.541 572.367 837.544 573.823 838.897 575.812C839.16 576.319 839.554 576.746 840.038 577.048C840.354 577.142 840.663 577.26 840.961 577.4C841.822 577.969 841.309 579.288 840.814 580.193C839.546 582.523 838.961 585.162 839.125 587.809C839.115 588.269 839.25 588.721 839.512 589.099C839.929 589.485 840.475 589.703 841.043 589.71C842.83 589.935 844.632 590.031 846.433 589.999C848.196 589.967 850.152 589.717 851.294 588.374C852.522 586.93 852.329 584.718 851.53 583C850.731 581.281 849.433 579.844 848.51 578.188C847.635 576.439 846.945 574.603 846.449 572.711C845.811 570.296 844.783 568.001 843.405 565.918C841.998 563.819 839.783 562.4 837.29 561.998C833.944 561.624 830.859 563.685 828.169 565.71C825.149 567.984 821.936 570.797 821.694 574.569C821.497 577.626 823.332 580.391 824.291 583.299C825.771 587.789 825.151 592.667 824.515 597.352C827.242 595.718 830.328 593.45 830.149 590.276C830.028 588.135 828.413 586.426 827.407 584.531C824.642 579.323 827.795 575.831 831.283 572.265Z" fill="#2F2E41"/>
<path fill-rule="evenodd" clip-rule="evenodd" d="M940.048 609.908C942.389 605.823 943.598 601.188 943.552 596.479C943.552 584.343 936.036 574.505 926.766 574.505C917.495 574.505 909.979 584.343 909.979 596.479C909.933 601.188 911.142 605.823 913.483 609.908C908.812 618.252 908.812 628.423 913.483 636.766C908.812 645.109 908.812 655.281 913.483 663.624C908.812 671.967 908.812 682.138 913.483 690.482C911.143 694.567 909.933 699.202 909.979 703.911C909.979 716.047 917.495 725.885 926.766 725.885C936.036 725.885 943.552 716.047 943.552 703.911C943.598 699.202 942.389 694.567 940.048 690.482C944.72 682.138 944.72 671.967 940.048 663.624C944.72 655.281 944.72 645.109 940.048 636.766C944.72 628.423 944.72 618.252 940.048 609.908Z" fill="#3F3D56"/>
<path d="M926.766 591.596C936.036 591.596 943.552 581.758 943.552 569.622C943.552 557.485 936.036 547.647 926.766 547.647C917.495 547.647 909.979 557.485 909.979 569.622C909.979 581.758 917.495 591.596 926.766 591.596Z" fill="#3F3D56"/>
<path d="M926.766 564.738C936.036 564.738 943.552 554.9 943.552 542.764C943.552 530.628 936.036 520.789 926.766 520.789C917.495 520.789 909.979 530.628 909.979 542.764C909.979 554.9 917.495 564.738 926.766 564.738Z" fill="#3F3D56"/>
<path fill-rule="evenodd" clip-rule="evenodd" d="M989.604 358.967C991.898 356.048 993.986 352.973 995.856 349.765L951.749 342.522L999.452 342.876C1008.7 322.754 1009.26 299.711 1000.99 279.166L936.988 312.366L996.01 268.98C980.938 242.936 952.586 227.485 922.53 228.938C892.474 230.39 865.744 248.503 853.254 275.879C840.764 303.256 844.605 335.315 863.207 358.967C859.633 363.512 856.558 368.428 854.037 373.631L911.291 403.376L850.243 382.887C841.534 408.63 846.41 437.03 863.207 458.394C837.28 491.357 841.042 538.711 871.848 567.167C902.654 595.623 950.157 595.623 980.964 567.167C1011.77 538.711 1015.53 491.357 989.604 458.394C1012.55 429.222 1012.55 388.139 989.604 358.967V358.967Z" fill="#F2F2F2"/>
<path fill-rule="evenodd" clip-rule="evenodd" d="M846 408.681C845.972 426.717 852.036 444.234 863.207 458.394C837.28 491.357 841.042 538.711 871.848 567.167C902.654 595.623 950.157 595.623 980.964 567.167C1011.77 538.711 1015.53 491.357 989.604 458.394C1000.38 444.713 846 399.656 846 408.681Z" fill="#F2F2F2"/>
<path fill-rule="evenodd" clip-rule="evenodd" d="M989.604 358.967C991.898 356.048 993.986 352.973 995.856 349.765L951.749 342.522L999.452 342.876C1008.7 322.754 1009.26 299.711 1000.99 279.166L936.988 312.366L996.01 268.98C980.938 242.936 952.586 227.485 922.53 228.938C892.474 230.39 865.744 248.503 853.254 275.879C840.764 303.256 844.605 335.315 863.207 358.967C859.633 363.512 856.558 368.428 854.037 373.631L911.291 403.376L850.243 382.887C841.534 408.63 846.41 437.03 863.207 458.394C837.28 491.357 841.042 538.711 871.848 567.167C902.654 595.623 950.157 595.623 980.964 567.167C1011.77 538.711 1015.53 491.357 989.604 458.394C1012.55 429.222 1012.55 388.139 989.604 358.967V358.967Z" fill="#57B894"/>
<path opacity="0.1" fill-rule="evenodd" clip-rule="evenodd" d="M846 408.681C845.972 426.717 852.036 444.234 863.207 458.394C837.28 491.357 841.042 538.711 871.848 567.167C902.654 595.623 950.157 595.623 980.964 567.167C1011.77 538.711 1015.53 491.357 989.604 458.394C1000.38 444.713 846 399.656 846 408.681Z" fill="black"/>
<path fill-rule="evenodd" clip-rule="evenodd" d="M95.0481 609.908C97.3886 605.823 98.598 601.188 98.5517 596.479C98.5517 584.343 91.0363 574.505 81.7656 574.505C72.4949 574.505 64.9794 584.343 64.9794 596.479C64.9331 601.188 66.1425 605.823 68.483 609.908C63.8116 618.252 63.8116 628.423 68.483 636.766C63.8116 645.109 63.8116 655.281 68.483 663.624C63.8116 671.967 63.8116 682.138 68.483 690.482C66.1425 694.567 64.9331 699.202 64.9794 703.911C64.9794 716.047 72.4948 725.885 81.7656 725.885C91.0363 725.885 98.5517 716.047 98.5517 703.911C98.598 699.202 97.3886 694.567 95.0481 690.482C99.7195 682.138 99.7195 671.967 95.0481 663.624C99.7195 655.281 99.7195 645.109 95.0481 636.766C99.7195 628.423 99.7195 618.252 95.0481 609.908Z" fill="#3F3D56"/>
<path d="M81.7655 591.596C91.0362 591.596 98.5516 581.758 98.5516 569.622C98.5516 557.485 91.0362 547.647 81.7655 547.647C72.4948 547.647 64.9794 557.485 64.9794 569.622C64.9794 581.758 72.4948 591.596 81.7655 591.596Z" fill="#3F3D56"/>
<path d="M81.7655 564.738C91.0362 564.738 98.5516 554.9 98.5516 542.764C98.5516 530.628 91.0362 520.789 81.7655 520.789C72.4948 520.789 64.9794 530.628 64.9794 542.764C64.9794 554.9 72.4948 564.738 81.7655 564.738Z" fill="#3F3D56"/>
<path fill-rule="evenodd" clip-rule="evenodd" d="M144.604 358.967C146.898 356.048 148.986 352.973 150.856 349.765L106.749 342.522L154.452 342.876C163.7 322.754 164.255 299.711 155.987 279.166L91.9881 312.366L151.01 268.98C135.938 242.936 107.586 227.485 77.5301 228.938C47.4739 230.39 20.7439 248.503 8.25399 275.879C-4.23597 303.256 -0.39551 335.315 18.2073 358.967C14.6326 363.512 11.5582 368.428 9.0373 373.631L66.2912 403.376L5.24257 382.887C-3.46592 408.63 1.41039 437.03 18.2073 458.394C-7.71999 491.357 -3.95832 538.711 26.8479 567.167C57.6541 595.623 105.157 595.623 135.964 567.167C166.77 538.711 170.532 491.357 144.604 458.394C167.547 429.222 167.547 388.139 144.604 358.967L144.604 358.967Z" fill="#F2F2F2"/>
<path fill-rule="evenodd" clip-rule="evenodd" d="M1.00005 408.681C0.972289 426.717 7.03552 444.234 18.2073 458.394C-7.71999 491.357 -3.95832 538.711 26.8479 567.167C57.6541 595.623 105.157 595.623 135.964 567.167C166.77 538.711 170.532 491.357 144.604 458.394C155.381 444.713 1.00005 399.656 1.00005 408.681Z" fill="#F2F2F2"/>
<path fill-rule="evenodd" clip-rule="evenodd" d="M144.604 358.967C146.898 356.048 148.986 352.973 150.856 349.765L106.749 342.522L154.452 342.876C163.7 322.754 164.255 299.711 155.987 279.166L91.9881 312.366L151.01 268.98C135.938 242.936 107.586 227.485 77.5301 228.938C47.4739 230.39 20.7439 248.503 8.25399 275.879C-4.23597 303.256 -0.39551 335.315 18.2073 358.967C14.6326 363.512 11.5582 368.428 9.0373 373.631L66.2912 403.376L5.24257 382.887C-3.46592 408.63 1.41039 437.03 18.2073 458.394C-7.71999 491.357 -3.95832 538.711 26.8479 567.167C57.6541 595.623 105.157 595.623 135.964 567.167C166.77 538.711 170.532 491.357 144.604 458.394C167.547 429.222 167.547 388.139 144.604 358.967L144.604 358.967Z" fill="#57B894"/>
<path opacity="0.1" fill-rule="evenodd" clip-rule="evenodd" d="M1.00005 408.681C0.972289 426.717 7.03552 444.234 18.2073 458.394C-7.71999 491.357 -3.95832 538.711 26.8479 567.167C57.6541 595.623 105.157 595.623 135.964 567.167C166.77 538.711 170.532 491.357 144.604 458.394C155.381 444.713 1.00005 399.656 1.00005 408.681Z" fill="black"/>
<path fill-rule="evenodd" clip-rule="evenodd" d="M580.452 354.556L540.556 394.452L521.653 375.55L514.294 382.909L540.531 409.146L587.812 361.915L580.452 354.556Z" fill="#57B894"/>
<path fill-rule="evenodd" clip-rule="evenodd" d="M707.452 263.556L667.556 303.452L648.653 284.55L641.294 291.909L667.531 318.146L714.812 270.915L707.452 263.556Z" fill="#57B894"/>
</g>
<defs>
<clipPath id="clip0_2393_3126">
<rect width="1008" height="762" fill="white"/>
</clipPath>
</defs>
</svg>
