<svg width="24" height="24" viewBox="0 0 24 24" fill="none" xmlns="http://www.w3.org/2000/svg">
<path d="M12 0.375C5.57812 0.375 0.375 5.625 0.375 12C0.375 18.4219 5.57812 23.625 12 23.625C18.375 23.625 23.625 18.4219 23.625 12C23.625 5.625 18.375 0.375 12 0.375ZM12 5.53125C13.0781 5.53125 13.9688 6.42188 13.9688 7.5C13.9688 8.625 13.0781 9.46875 12 9.46875C10.875 9.46875 10.0312 8.625 10.0312 7.5C10.0312 6.42188 10.875 5.53125 12 5.53125ZM14.625 17.4375C14.625 17.7656 14.3438 18 14.0625 18H9.9375C9.60938 18 9.375 17.7656 9.375 17.4375V16.3125C9.375 16.0312 9.60938 15.75 9.9375 15.75H10.5V12.75H9.9375C9.60938 12.75 9.375 12.5156 9.375 12.1875V11.0625C9.375 10.7812 9.60938 10.5 9.9375 10.5H12.9375C13.2188 10.5 13.5 10.7812 13.5 11.0625V15.75H14.0625C14.3438 15.75 14.625 16.0312 14.625 16.3125V17.4375Z" fill="#172F6E"/>
</svg>
