<svg width="1028" height="785" viewBox="0 0 1028 785" fill="none" xmlns="http://www.w3.org/2000/svg">
<g clip-path="url(#clip0_2393_2985)">
<path opacity="0.1" fill-rule="evenodd" clip-rule="evenodd" d="M586.56 124.98C521.84 122.73 460.2 101.84 401.33 78.98C342.46 56.12 284.17 30.8 221 18.68C180.37 10.89 133.91 9.79 101.17 31.57C69.67 52.57 59.49 88.72 54.01 122.3C49.9 147.56 47.48 174.15 58.76 197.8C66.59 214.22 80.5 228.02 90.12 243.74C123.58 298.46 99.93 365.98 63.68 419.37C46.68 444.44 26.94 468.37 13.81 495.03C0.679956 521.69 -5.39004 552.28 6.08996 579.5C17.48 606.5 44.61 626.74 74 640.99C133.68 669.99 204 678.22 272.61 682.91C424.43 693.3 577.07 688.8 729.29 684.3C785.63 682.63 842.21 680.94 897.64 672.23C928.41 667.4 960.19 659.72 982.53 641.23C1010.89 617.7 1017.92 577.86 998.92 548.35C967.04 498.86 878.92 486.57 856.61 433.46C844.34 404.22 856.94 371.66 874.76 344.54C913 286.38 977.09 235.35 980.47 168.87C982.79 123.21 951.98 77.48 904.34 55.87C854.4 33.23 785.16 36.08 748.34 73.56C710.36 112.11 643.68 126.98 586.56 124.98Z" fill="#2F7DF7"/>
<path opacity="0.1" d="M579.79 755.16C784.677 755.16 950.77 742.812 950.77 727.58C950.77 712.348 784.677 700 579.79 700C374.903 700 208.81 712.348 208.81 727.58C208.81 742.812 374.903 755.16 579.79 755.16Z" fill="#2F7DF7"/>
<path fill-rule="evenodd" clip-rule="evenodd" d="M292.94 638.25C292.94 638.25 313.94 634.89 326.54 649.74C326.54 649.74 317.3 657.02 297.42 646.94L292.94 638.25Z" fill="#2F7DF7"/>
<path fill-rule="evenodd" clip-rule="evenodd" d="M290.68 637.98C290.68 637.98 277.29 654.5 283.86 672.83C283.86 672.83 294.78 668.45 295.97 646.19L290.68 637.98Z" fill="#2F7DF7"/>
<path fill-rule="evenodd" clip-rule="evenodd" d="M278.68 610.81C278.68 610.81 287.08 595.41 320.68 616.97C320.68 616.97 316.2 627.33 301.36 626.49C286.52 625.65 282.58 618.98 278.68 610.81Z" fill="#2F7DF7"/>
<path fill-rule="evenodd" clip-rule="evenodd" d="M276.49 609.7C276.49 609.7 259.06 607.7 257.37 647.61C257.37 647.61 268.42 649.9 276.27 637.28C284.12 624.66 280.88 617.58 276.49 609.7Z" fill="#2F7DF7"/>
<path fill-rule="evenodd" clip-rule="evenodd" d="M266.34 577.88C266.34 577.88 276.14 550.72 311.7 570.04C311.7 570.04 303.58 594.96 269.98 587.12L266.34 577.88Z" fill="#2F7DF7"/>
<path fill-rule="evenodd" clip-rule="evenodd" d="M255.41 537.28C255.41 537.28 273.9 509.83 306.66 535.28C306.66 535.28 295.18 561.04 258.21 547.04L255.41 537.28Z" fill="#2F7DF7"/>
<path fill-rule="evenodd" clip-rule="evenodd" d="M251.49 498.63C251.49 498.63 273.06 473.43 305.54 498.63C305.54 498.63 285.1 520.75 251.49 505.07V498.63Z" fill="#2F7DF7"/>
<path fill-rule="evenodd" clip-rule="evenodd" d="M248.13 461.11C248.13 461.11 269.98 434.79 301.06 459.71C301.06 459.71 276.42 482.95 248.13 467.27V461.11Z" fill="#2F7DF7"/>
<path fill-rule="evenodd" clip-rule="evenodd" d="M250.09 427.79C250.09 427.79 273.09 393.9 302.18 416.87C302.18 416.87 277.54 445.99 250.09 434.23V427.79Z" fill="#2F7DF7"/>
<path fill-rule="evenodd" clip-rule="evenodd" d="M255.41 388.86C255.41 388.86 279.78 355.26 308.06 381.02C308.06 381.02 279.22 410.15 255.41 395.02V388.86Z" fill="#2F7DF7"/>
<path fill-rule="evenodd" clip-rule="evenodd" d="M263.54 354.07C263.54 354.07 292.38 322.5 317.54 335.07C317.54 335.07 287.48 368.6 262.28 362.44L263.54 354.07Z" fill="#2F7DF7"/>
<path fill-rule="evenodd" clip-rule="evenodd" d="M273.62 321.1C273.62 321.1 306.94 282.46 326.26 295.34C326.26 295.34 301.74 325.34 271.26 328.34L273.62 321.1Z" fill="#2F7DF7"/>
<path fill-rule="evenodd" clip-rule="evenodd" d="M288.17 282.85C288.17 282.85 317.3 251.27 338.58 259.11C338.58 259.11 313.66 291.87 284.26 292.71L288.17 282.85Z" fill="#2F7DF7"/>
<path fill-rule="evenodd" clip-rule="evenodd" d="M301.34 247.07C301.34 247.07 333.54 216.82 347.54 222.14C347.54 222.14 324.3 255.75 299.94 253.79L301.34 247.07Z" fill="#2F7DF7"/>
<path fill-rule="evenodd" clip-rule="evenodd" d="M314.22 213.98C314.22 213.98 341.94 177.86 357.06 180.66C357.06 180.66 340.26 212.86 314.22 217.66V213.98Z" fill="#2F7DF7"/>
<path fill-rule="evenodd" clip-rule="evenodd" d="M328.2 169.48C328.2 169.48 352.7 141.78 365.93 141.85C365.93 141.85 346.59 178.85 327.19 178.51L328.2 169.48Z" fill="#2F7DF7"/>
<path fill-rule="evenodd" clip-rule="evenodd" d="M336.48 139.82L360.14 82.13C360.14 82.13 361.33 134.28 333.47 150.52L336.48 139.82Z" fill="#2F7DF7"/>
<path fill-rule="evenodd" clip-rule="evenodd" d="M346.09 76.2C346.09 76.2 350.01 28.04 347.49 24.12C347.49 24.12 364.41 64.12 345.92 97.48L346.09 76.2Z" fill="#2F7DF7"/>
<path fill-rule="evenodd" clip-rule="evenodd" d="M265.42 577.23C265.42 577.23 240.88 562.02 224.99 599.23C224.99 599.23 246.83 613.72 268.3 586.72L265.42 577.23Z" fill="#2F7DF7"/>
<path fill-rule="evenodd" clip-rule="evenodd" d="M254.68 535.73C254.68 535.73 224.58 522 209.97 560.85C209.97 560.85 233.23 576.85 257.42 545.55L254.68 535.73Z" fill="#2F7DF7"/>
<path fill-rule="evenodd" clip-rule="evenodd" d="M250.09 500.98C250.09 500.98 228.53 475.78 196.09 500.98C196.09 500.98 216.53 523.1 250.09 507.42V500.98Z" fill="#2F7DF7"/>
<path fill-rule="evenodd" clip-rule="evenodd" d="M247.4 461.11C247.4 461.11 225.56 434.79 194.47 459.71C194.47 459.71 219.12 482.95 247.4 467.27V461.11Z" fill="#2F7DF7"/>
<path fill-rule="evenodd" clip-rule="evenodd" d="M250.09 428.75C250.09 428.75 234.77 390.75 201.47 407.12C201.47 407.12 219.47 440.77 248.74 435.04L250.09 428.75Z" fill="#2F7DF7"/>
<path fill-rule="evenodd" clip-rule="evenodd" d="M257.34 388.67C257.34 388.67 242.12 350.06 208.34 367.97C208.34 367.97 229.02 403.36 255.84 394.64L257.34 388.67Z" fill="#2F7DF7"/>
<path fill-rule="evenodd" clip-rule="evenodd" d="M266.78 354.27C266.78 354.27 260.78 311.94 232.78 308.15C232.78 308.15 238.71 352.79 263 361.9L266.78 354.27Z" fill="#2F7DF7"/>
<path fill-rule="evenodd" clip-rule="evenodd" d="M274.33 321.17C274.33 321.17 271.99 270.17 248.84 268.4C248.84 268.4 249.62 307.11 271.72 328.4L274.33 321.17Z" fill="#2F7DF7"/>
<path fill-rule="evenodd" clip-rule="evenodd" d="M290.57 281.39C290.57 281.39 283.66 238.98 261.57 233.79C261.57 233.79 264.31 274.87 288.39 291.79L290.57 281.39Z" fill="#2F7DF7"/>
<path fill-rule="evenodd" clip-rule="evenodd" d="M303.96 247.37C303.96 247.37 303.72 203.2 290.23 196.7C290.23 196.7 281.85 236.7 300.05 253.01L303.96 247.37Z" fill="#2F7DF7"/>
<path fill-rule="evenodd" clip-rule="evenodd" d="M315.25 213.53C315.25 213.53 313.36 168.04 299.38 161.63C299.38 161.63 294.59 197.63 313.15 216.51L315.25 213.53Z" fill="#2F7DF7"/>
<path fill-rule="evenodd" clip-rule="evenodd" d="M330.15 173.1C330.15 173.1 330.06 136.1 320.09 127.43C320.09 127.43 310.16 167.96 324.94 180.55L330.15 173.1Z" fill="#2F7DF7"/>
<path fill-rule="evenodd" clip-rule="evenodd" d="M335.3 137.98L325.6 76.39C325.6 76.39 312.41 126.85 335.77 149.08L335.3 137.98Z" fill="#2F7DF7"/>
<path fill-rule="evenodd" clip-rule="evenodd" d="M337.2 76.79C337.2 76.79 312.28 35.39 312.79 30.79C312.79 30.79 315.44 74.18 346.79 95.79L337.2 76.79Z" fill="#2F7DF7"/>
<path fill-rule="evenodd" clip-rule="evenodd" d="M340.12 64.56C340.12 64.56 316.6 5.76001 305.96 0.980011C305.96 0.980011 339.56 18.06 342.08 62.86L340.12 64.56Z" fill="#2F7DF7"/>
<path fill-rule="evenodd" clip-rule="evenodd" d="M327.06 178.86L325.46 178.36C345.31 113.64 350.26 72.36 339.4 62.02L340.56 60.8C352.07 71.72 347.4 112.54 327.06 178.86Z" fill="#444053"/>
<path fill-rule="evenodd" clip-rule="evenodd" d="M272.41 330.37L270.03 329.53C272.13 323.6 274.41 317.58 276.79 311.65C297.51 259.98 315.14 211.98 326.45 175.09L328.52 174.09C317.19 210.98 299.87 260.88 279.13 312.59C276.76 318.49 274.5 324.47 272.41 330.37Z" fill="#444053"/>
<path fill-rule="evenodd" clip-rule="evenodd" d="M322.49 686.7C322.17 686.34 289.99 650.12 267.57 588.26C254.422 552.053 247.098 513.991 245.87 475.49C244.34 427.36 254.43 373.61 271.74 324.8L273.62 327C234.78 436.56 250.21 530.45 270.68 586.98C292.87 648.27 324.68 684.1 324.99 684.46L322.49 686.7Z" fill="#444053"/>
<path opacity="0.1" d="M957.84 758.78C972.713 758.78 984.77 756.743 984.77 754.23C984.77 751.717 972.713 749.68 957.84 749.68C942.967 749.68 930.91 751.717 930.91 754.23C930.91 756.743 942.967 758.78 957.84 758.78Z" fill="#2F7DF7"/>
<path opacity="0.1" d="M699.95 784.97C714.823 784.97 726.88 782.933 726.88 780.42C726.88 777.907 714.823 775.87 699.95 775.87C685.077 775.87 673.02 777.907 673.02 780.42C673.02 782.933 685.077 784.97 699.95 784.97Z" fill="#2F7DF7"/>
<path opacity="0.1" d="M1000.43 719.34C1015.3 719.34 1027.36 717.303 1027.36 714.79C1027.36 712.277 1015.3 710.24 1000.43 710.24C985.557 710.24 973.5 712.277 973.5 714.79C973.5 717.303 985.557 719.34 1000.43 719.34Z" fill="#2F7DF7"/>
<path d="M724.29 80.74H312.54C307.128 80.74 302.74 85.1276 302.74 90.54V712.32C302.74 717.732 307.128 722.12 312.54 722.12H724.29C729.702 722.12 734.09 717.732 734.09 712.32V90.54C734.09 85.1276 729.702 80.74 724.29 80.74Z" fill="#172F6E"/>
<path opacity="0.1" d="M670.74 135.87H371.43C355.298 135.87 342.22 148.948 342.22 165.08V232.75C342.22 248.882 355.298 261.96 371.43 261.96H670.74C686.872 261.96 699.95 248.882 699.95 232.75V165.08C699.95 148.948 686.872 135.87 670.74 135.87Z" fill="black"/>
<path d="M686.63 138.33H354.72C349.087 138.33 344.52 142.897 344.52 148.53V250.08C344.52 255.713 349.087 260.28 354.72 260.28H686.63C692.263 260.28 696.83 255.713 696.83 250.08V148.53C696.83 142.897 692.263 138.33 686.63 138.33Z" fill="#E6E8EC"/>
<path opacity="0.2" d="M415.03 314.48H365.47C359.511 314.48 354.68 319.311 354.68 325.27V382.73C354.68 388.689 359.511 393.52 365.47 393.52H415.03C420.989 393.52 425.82 388.689 425.82 382.73V325.27C425.82 319.311 420.989 314.48 415.03 314.48Z" fill="black"/>
<path opacity="0.2" d="M501.98 314.48H452.42C446.461 314.48 441.63 319.311 441.63 325.27V382.73C441.63 388.689 446.461 393.52 452.42 393.52H501.98C507.939 393.52 512.77 388.689 512.77 382.73V325.27C512.77 319.311 507.939 314.48 501.98 314.48Z" fill="black"/>
<path opacity="0.2" d="M588.93 314.48H539.37C533.411 314.48 528.58 319.311 528.58 325.27V382.73C528.58 388.689 533.411 393.52 539.37 393.52H588.93C594.889 393.52 599.72 388.689 599.72 382.73V325.27C599.72 319.311 594.889 314.48 588.93 314.48Z" fill="black"/>
<path opacity="0.1" d="M657.83 316.16H644.37C628.442 316.16 615.53 329.072 615.53 345V366.36C615.53 382.288 628.442 395.2 644.37 395.2H657.83C673.758 395.2 686.67 382.288 686.67 366.36V345C686.67 329.072 673.758 316.16 657.83 316.16Z" fill="black"/>
<path d="M675.88 314.48H626.32C620.361 314.48 615.53 319.311 615.53 325.27V382.73C615.53 388.689 620.361 393.52 626.32 393.52H675.88C681.839 393.52 686.67 388.689 686.67 382.73V325.27C686.67 319.311 681.839 314.48 675.88 314.48Z" fill="#2F7DF7"/>
<path opacity="0.2" d="M415.03 401.43H365.47C359.511 401.43 354.68 406.261 354.68 412.22V469.68C354.68 475.639 359.511 480.47 365.47 480.47H415.03C420.989 480.47 425.82 475.639 425.82 469.68V412.22C425.82 406.261 420.989 401.43 415.03 401.43Z" fill="black"/>
<path opacity="0.2" d="M501.98 401.43H452.42C446.461 401.43 441.63 406.261 441.63 412.22V469.68C441.63 475.639 446.461 480.47 452.42 480.47H501.98C507.939 480.47 512.77 475.639 512.77 469.68V412.22C512.77 406.261 507.939 401.43 501.98 401.43Z" fill="black"/>
<path opacity="0.2" d="M588.93 401.43H539.37C533.411 401.43 528.58 406.261 528.58 412.22V469.68C528.58 475.639 533.411 480.47 539.37 480.47H588.93C594.889 480.47 599.72 475.639 599.72 469.68V412.22C599.72 406.261 594.889 401.43 588.93 401.43Z" fill="black"/>
<path opacity="0.2" d="M415.03 497.41H365.47C359.511 497.41 354.68 502.241 354.68 508.2V565.66C354.68 571.619 359.511 576.45 365.47 576.45H415.03C420.989 576.45 425.82 571.619 425.82 565.66V508.2C425.82 502.241 420.989 497.41 415.03 497.41Z" fill="black"/>
<path opacity="0.2" d="M501.98 497.41H452.42C446.461 497.41 441.63 502.241 441.63 508.2V565.66C441.63 571.619 446.461 576.45 452.42 576.45H501.98C507.939 576.45 512.77 571.619 512.77 565.66V508.2C512.77 502.241 507.939 497.41 501.98 497.41Z" fill="black"/>
<path opacity="0.2" d="M588.93 497.41H539.37C533.411 497.41 528.58 502.241 528.58 508.2V565.66C528.58 571.619 533.411 576.45 539.37 576.45H588.93C594.889 576.45 599.72 571.619 599.72 565.66V508.2C599.72 502.241 594.889 497.41 588.93 497.41Z" fill="black"/>
<path opacity="0.2" d="M588.93 593.39H539.37C533.411 593.39 528.58 598.221 528.58 604.18V661.64C528.58 667.599 533.411 672.43 539.37 672.43H588.93C594.889 672.43 599.72 667.599 599.72 661.64V604.18C599.72 598.221 594.889 593.39 588.93 593.39Z" fill="black"/>
<path opacity="0.1" d="M657.83 403.11H644.37C628.442 403.11 615.53 416.022 615.53 431.95V453.31C615.53 469.238 628.442 482.15 644.37 482.15H657.83C673.758 482.15 686.67 469.238 686.67 453.31V431.95C686.67 416.022 673.758 403.11 657.83 403.11Z" fill="black"/>
<path d="M675.37 401.43H626.83C620.589 401.43 615.53 406.489 615.53 412.73V469.17C615.53 475.411 620.589 480.47 626.83 480.47H675.37C681.611 480.47 686.67 475.411 686.67 469.17V412.73C686.67 406.489 681.611 401.43 675.37 401.43Z" fill="#2F7DF7"/>
<path opacity="0.2" d="M675.37 401.43H626.83C620.589 401.43 615.53 406.489 615.53 412.73V469.17C615.53 475.411 620.589 480.47 626.83 480.47H675.37C681.611 480.47 686.67 475.411 686.67 469.17V412.73C686.67 406.489 681.611 401.43 675.37 401.43Z" fill="black"/>
<path opacity="0.2" d="M502.73 593.39H364.72C359.175 593.39 354.68 597.885 354.68 603.43V662.39C354.68 667.935 359.175 672.43 364.72 672.43H502.73C508.275 672.43 512.77 667.935 512.77 662.39V603.43C512.77 597.885 508.275 593.39 502.73 593.39Z" fill="black"/>
<path opacity="0.2" d="M675 497.41H620.41C613.97 497.41 608.75 502.63 608.75 509.07V660.78C608.75 667.22 613.97 672.44 620.41 672.44H675C681.44 672.44 686.66 667.22 686.66 660.78V509.07C686.66 502.63 681.44 497.41 675 497.41Z" fill="black"/>
<path d="M681.01 238.98H649.87V242.35H681.01V238.98Z" fill="#2F7DF7"/>
<path d="M635.42 238.98H604.28V242.35H635.42V238.98Z" fill="#2F7DF7"/>
<path d="M589.82 238.98H558.68V242.35H589.82V238.98Z" fill="#2F7DF7"/>
<path d="M544.23 238.98H513.09V242.35H544.23V238.98Z" fill="#2F7DF7"/>
<path fill-rule="evenodd" clip-rule="evenodd" d="M879.87 475.54C883.08 464.74 879.87 453.94 879.87 453.94V443.75C879.87 443.75 883.54 423.83 867.16 411.05L856.3 401.47C856.3 401.47 850.21 396.24 848.44 395.91C848.11 395.839 847.776 395.789 847.44 395.76L847.12 395.57C846.187 393.974 845.39 392.301 844.74 390.57C846.165 390.754 847.595 390.267 848.61 389.25C849.002 388.799 849.311 388.28 849.52 387.72C850.15 386.31 850.26 384.6 850.79 383.1C851.255 381.884 851.932 380.76 852.79 379.78C852.68 379.96 852.56 380.13 852.46 380.32C854 378.4 856.01 376.76 857.46 374.74C857.748 374.339 858.011 373.922 858.25 373.49C858.19 373.58 858.11 373.66 858.04 373.75C860.04 370.54 860.65 366.65 861.23 362.9C861.509 361.624 861.53 360.304 861.29 359.02C861.009 358.168 860.647 357.344 860.21 356.56C857.85 351.69 857.89 345.56 854.12 341.67C851.28 338.76 846.98 337.87 842.93 337.37C838.88 336.87 834.62 336.58 831.14 334.46C830.168 333.723 829.093 333.134 827.95 332.71C826.763 332.296 825.45 332.783 824.82 333.87C824.748 334.182 824.604 334.473 824.4 334.72C824.033 334.928 823.589 334.954 823.2 334.79L817.81 333.35L817.87 333.62H817.73L817.93 334.47C818.148 334.432 818.362 334.553 818.44 334.76L817.57 336.1C815.902 336.07 814.254 335.731 812.71 335.1C812.7 335.186 812.7 335.274 812.71 335.36H812.63C812.53 336.88 814.26 337.87 814.79 339.3C815.002 339.926 815.002 340.604 814.79 341.23C814.573 341.81 814.232 342.336 813.79 342.77C811.88 344.66 809.43 344.29 807.23 345.48C806.845 345.644 806.552 345.97 806.43 346.37C806.343 346.518 806.318 346.694 806.36 346.86C806.447 347.09 806.604 347.286 806.81 347.42C807.45 347.938 808.152 348.374 808.9 348.72C808.68 348.92 808.47 349.12 808.27 349.33C802.599 355.094 800.196 363.317 801.872 371.228C803.547 379.138 809.079 385.681 816.6 388.65C816.68 389.07 816.74 389.5 816.8 389.95V390.08L816.86 390.66L809.6 393.75C807.365 393.733 805.34 392.428 804.4 390.4C802.71 386.91 796.74 390.4 796.74 390.4C796.74 390.4 778.53 389.04 771.74 392.4C771.74 392.4 760.87 387.84 759.34 387.53C757.81 387.22 755.52 386.01 754.45 386.32C753.38 386.63 752 384.32 751.23 384.49C750.46 384.66 750.16 382.97 747.71 382.36C745.26 381.75 744.34 382.52 741.59 379.78C738.84 377.04 716.48 366.24 716.48 366.24L706.44 357.98L695.73 349.46L695.54 349.81C695.47 349.56 695.4 349.3 695.33 349.02C694.264 344.776 692.928 340.604 691.33 336.53C690.64 334.88 690.33 332.8 689.4 333.9C688.83 334.56 687.86 333.11 686.4 332.13C685.773 331.697 684.985 331.569 684.253 331.783C683.522 331.996 682.925 332.528 682.63 333.23C674.29 346.31 671.3 347.23 676.13 352.04C680.44 356.31 683.3 360.04 686.81 361.22L687.23 361.35C687.155 361.37 687.075 361.37 687 361.35L707.36 385.69C707.36 385.69 722.05 398.47 732.16 402.57C742.27 406.67 741.49 407.9 741.49 407.9C741.49 407.9 772.11 423.41 776.85 423.11C781.59 422.81 780.68 454.9 778.69 460.11C776.7 465.32 773.49 502.7 773.49 502.7C773.49 502.7 770.42 510.61 773.64 516.08C773.64 516.08 774.35 526.56 773.71 529.08C770.92 533.38 766.94 540.68 766.29 548.19C766.29 548.59 766.21 548.96 766.17 549.35C765.966 549.587 765.722 549.787 765.45 549.94L766.13 549.74C765.841 552.87 765.169 555.953 764.13 558.92C762.511 563.087 761.654 567.51 761.6 571.98V596.14L759.6 611.14C759.6 611.14 757.15 622.49 759.6 625.14C760.633 626.461 761.113 628.132 760.94 629.8C760.838 631.737 761.387 633.652 762.5 635.24C763.362 636.182 763.733 637.474 763.5 638.73C762.69 641.36 764.7 669.35 764.7 669.35C764.7 669.35 764.11 677.06 763.3 677.47C762.49 677.88 764.7 686.39 764.7 686.39C764.7 686.39 756.43 693.29 758.54 696.94L760.65 700.18L760.09 700.73L759.75 701.08C759.112 700.712 758.368 700.571 757.64 700.68C755.041 703.339 752.261 705.815 749.32 708.09C745.59 710.78 735.44 714.68 735.44 714.68L727.44 715.33H727.29C727.29 715.33 723.46 714.97 725.61 720.9C727.76 726.83 746.98 725.01 746.98 725.01L758.2 723.24C758.2 723.24 778.2 723.34 783.93 722.07C786.32 721.54 786.93 720.26 786.73 718.97L786.67 718.91C786.395 717.68 785.833 716.532 785.03 715.56C784.989 715.496 784.942 715.436 784.89 715.38L785.25 711.28C793.74 706.39 782.85 696.77 782.85 696.77C782.85 696.77 786.58 688.66 788.49 686.03C790.4 683.4 790.4 644.65 790.4 644.65C790.4 644.65 791.4 630.65 788.77 627.41C788.678 625.26 789.777 623.234 791.63 622.14C793.52 620.85 799.23 603.08 803.71 588.33L806.53 605.71C806.53 605.71 805.92 614.03 807.75 616.46C808.445 617.386 808.721 618.561 808.51 619.7C808.076 622.032 808.217 624.435 808.92 626.7C809.135 627.672 809.657 628.549 810.41 629.2C812.04 630.01 812.14 632.9 812.75 633.51C813.36 634.12 817.14 632.65 817.34 634.88C817.454 636.838 817.454 638.802 817.34 640.76L818.57 676.86C818.57 676.86 816.57 679.86 816.12 687.86C815.95 691.27 815.31 693.21 814.65 694.32C813.899 695.542 814.02 697.108 814.95 698.2L815.3 698.61L813.79 699.77C812.539 700.742 812.146 702.461 812.85 703.88C811.854 704.747 811.485 706.133 811.92 707.38C811.982 707.58 812.069 707.772 812.18 707.95C811.033 708.13 809.968 708.657 809.13 709.46C807.622 711.532 805.804 713.36 803.74 714.88C800.745 717.175 797.877 719.632 795.15 722.24C793.864 723.99 792.14 725.37 790.15 726.24C789.662 726.438 789.156 726.589 788.64 726.69C784.64 727.51 785.89 731.69 789.15 732.38C792.41 733.07 803.23 736.38 811.65 734.45C811.65 734.45 814.15 735.45 817.82 733.59C821.49 731.73 829.68 729.45 829.68 729.45C829.68 729.45 834.27 729.45 834.89 727.63C835.051 727.05 835.139 726.452 835.15 725.85L835.28 725.72L835.16 725.61C835.171 724.247 835.067 722.886 834.85 721.54C834.73 720.84 834.6 720.22 834.48 719.72C834.09 718.2 833.36 716.23 833.05 715.4C833.102 715.334 833.149 715.264 833.19 715.19C834.94 712.19 832.03 705.07 832.03 705.07C832.986 703.554 834.147 702.177 835.48 700.98C837.11 699.76 841.4 668.12 841.4 668.12C841.4 668.12 841.19 660.01 843.4 656.36C845.61 652.71 840.34 630.61 840.34 630.61C840.34 630.61 838.09 625.54 838.91 623.71C839.73 621.88 838.09 615.19 838.09 615.19V607.19C838.085 606.237 837.926 605.292 837.62 604.39C836.99 602.51 836.06 598.9 837.07 596.31C838.5 592.66 841.76 570.15 841.76 570.15C841.76 570.15 839.21 560.22 842.95 552.31C843.242 551.678 843.576 551.067 843.95 550.48C846.72 546.13 845.89 538.4 844.52 532.17C844.32 531.17 844.09 530.27 843.86 529.4C843.77 529.02 843.67 528.66 843.57 528.3L844.01 528.12C844.01 528.12 844.01 527.53 844.15 526.52C847.202 525.915 849.867 524.072 851.51 521.43C851.51 521.43 860.85 510.93 869.11 506.52C877.37 502.11 877.99 495.72 877.99 495.72C876.77 493.59 880.18 484.92 880.18 484.92L879.87 475.54ZM852.93 489.54L844.09 499.79V499.73C841.79 496.53 846.23 489.38 846.23 489.38L853.58 472.98C853.52 475.08 853.26 476.98 852.58 477.81C850.58 480.55 856.26 485.12 856.26 485.12C853.23 485.13 852.93 489.54 852.93 489.54Z" fill="url(#paint0_linear_2393_2985)"/>
<path fill-rule="evenodd" clip-rule="evenodd" d="M697.29 355.15L692.46 364.52C690.931 364.389 689.423 364.074 687.97 363.58C683.311 362.189 679.47 358.869 677.42 354.46C673.11 344.94 680.24 338.79 683.56 336.97C686.88 335.15 689.97 333.08 692.46 339.05C694.023 343.1 695.329 347.245 696.37 351.46C696.95 353.65 697.29 355.15 697.29 355.15Z" fill="#CC818C"/>
<path fill-rule="evenodd" clip-rule="evenodd" d="M850.68 403.89L842.97 415.37C842.97 415.37 806.54 432.75 813.5 412.37C816.56 403.37 816.92 396.8 816.37 392.25V392.12C815.65 386.43 813.51 383.96 813.51 383.96C813.51 383.96 849.02 365.78 843.73 378.21C842.651 380.793 842.221 383.602 842.48 386.39C842.916 390.405 844.22 394.278 846.3 397.74C847.551 399.931 849.018 401.992 850.68 403.89Z" fill="#CC818C"/>
<path fill-rule="evenodd" clip-rule="evenodd" d="M839.59 631.3C839.59 631.3 844.83 653.3 842.59 656.89C840.35 660.48 840.59 668.58 840.59 668.58C840.59 668.58 836.36 700.02 834.75 701.22C833.428 702.389 832.274 703.735 831.32 705.22C831.32 705.22 834.2 712.34 832.47 715.28C832.203 715.728 831.8 716.078 831.32 716.28C828.62 717.42 818.64 712.36 812.96 709.28C812.032 708.772 811.41 707.843 811.294 706.791C811.178 705.739 811.584 704.697 812.38 704C811.676 702.594 812.061 700.887 813.3 699.92L814.8 698.76L814.45 698.35C813.529 697.262 813.409 695.707 814.15 694.49C814.8 693.4 815.43 691.49 815.6 688.08C816.01 680.22 818.02 677.2 818.02 677.2L816.81 641.32C816.924 639.375 816.924 637.425 816.81 635.48C816.61 633.27 812.88 634.73 812.28 634.12C811.68 633.51 811.57 630.65 809.96 629.84C809.218 629.189 808.706 628.315 808.5 627.35C807.788 625.086 807.647 622.681 808.09 620.35C808.299 619.219 808.027 618.052 807.34 617.13C805.53 614.71 806.13 606.46 806.13 606.46L803.35 589.18C798.92 603.84 793.29 621.5 791.42 622.78C789.592 623.874 788.51 625.882 788.6 628.01C791.22 631.24 790.21 645.15 790.21 645.15C790.21 645.15 790.21 683.63 788.32 686.26C786.43 688.89 782.77 696.98 782.77 696.98C782.77 696.98 793.57 706.59 785.07 711.44H784.98C776.31 716.28 758.38 702.78 758.38 702.78L760.25 700.91L760.8 700.36L758.68 697.2C756.6 693.57 764.76 686.72 764.76 686.72C764.76 686.72 762.58 678.25 763.38 677.85C764.18 677.45 764.76 669.79 764.76 669.79C764.76 669.79 762.76 641.98 763.58 639.36C763.801 638.111 763.432 636.83 762.58 635.89C761.479 634.312 760.937 632.411 761.04 630.49C761.214 628.833 760.737 627.172 759.71 625.86C757.29 623.24 759.71 611.96 759.71 611.96L761.71 597.04V573.35C761.737 568.777 762.594 564.247 764.24 559.98C765.462 556.521 766.202 552.911 766.44 549.25C767.1 541.61 771.21 534.19 773.97 529.96C775.43 527.72 776.52 526.38 776.52 526.38L841 523.86C841 523.86 842 526.73 843.08 530.72C843.3 531.59 843.52 532.51 843.73 533.47C845.08 539.67 845.89 547.35 843.16 551.67C842.79 552.256 842.456 552.863 842.16 553.49C838.47 561.35 840.99 571.22 840.99 571.22C840.99 571.22 837.77 593.58 836.36 597.22C835.36 599.79 836.28 603.38 836.91 605.22C837.204 606.121 837.356 607.062 837.36 608.01V615.98C837.36 615.98 838.98 622.63 838.17 624.45C837.36 626.27 839.59 631.3 839.59 631.3Z" fill="#444053"/>
<path opacity="0.1" fill-rule="evenodd" clip-rule="evenodd" d="M842.56 552.31C842.186 552.89 841.852 553.495 841.56 554.12L837.93 553.92C838.28 552.05 835.81 534.52 835.81 534.52L843.12 534.11C844.47 540.3 845.29 547.98 842.56 552.31Z" fill="black"/>
<path fill-rule="evenodd" clip-rule="evenodd" d="M843.16 551.7C842.79 552.286 842.456 552.893 842.16 553.52L838.53 553.31C838.88 551.45 836.41 533.91 836.41 533.91L843.72 533.5C845.08 539.7 845.89 547.38 843.16 551.7Z" fill="#444053"/>
<path opacity="0.05" fill-rule="evenodd" clip-rule="evenodd" d="M843.16 551.7C842.79 552.286 842.456 552.893 842.16 553.52L838.53 553.31C838.88 551.45 836.41 533.91 836.41 533.91L843.72 533.5C845.08 539.7 845.89 547.38 843.16 551.7Z" fill="black"/>
<path opacity="0.1" fill-rule="evenodd" clip-rule="evenodd" d="M832.48 715.32C832.213 715.768 831.81 716.118 831.33 716.32C828.63 717.46 818.65 712.4 812.97 709.32C812.261 708.928 811.723 708.286 811.46 707.52C814.7 706.93 816.82 710.52 816.82 710.52C817.911 709.836 819.232 709.621 820.484 709.924C821.736 710.227 822.813 711.022 823.47 712.13C826.24 716.21 832.18 714.49 832.18 714.49L832.48 715.32Z" fill="black"/>
<path fill-rule="evenodd" clip-rule="evenodd" d="M834.15 727.67C833.55 729.49 829.01 729.49 829.01 729.49C829.01 729.49 820.9 731.81 817.27 733.62C813.64 735.43 811.18 734.48 811.18 734.48C802.87 736.39 792.18 733.07 788.96 732.41C785.74 731.75 784.48 727.58 788.46 726.77C788.97 726.665 789.469 726.511 789.95 726.31C791.944 725.447 793.671 724.066 794.95 722.31C797.644 719.72 800.478 717.28 803.44 715C805.479 713.486 807.273 711.668 808.76 709.61C813.5 705.43 816.87 711.17 816.87 711.17C817.962 710.487 819.284 710.273 820.536 710.578C821.788 710.883 822.864 711.681 823.52 712.79C826.29 716.87 832.23 715.14 832.23 715.14C832.23 715.14 833.3 717.87 833.8 719.83C833.92 720.33 834.05 720.95 834.17 721.65C834.44 723.68 834.61 726.31 834.15 727.67Z" fill="#FF748F"/>
<path d="M820.29 714.93C820.594 714.93 820.84 714.684 820.84 714.38C820.84 714.076 820.594 713.83 820.29 713.83C819.986 713.83 819.74 714.076 819.74 714.38C819.74 714.684 819.986 714.93 820.29 714.93Z" fill="#575988"/>
<path d="M815.56 719.36C815.864 719.36 816.11 719.114 816.11 718.81C816.11 718.506 815.864 718.26 815.56 718.26C815.256 718.26 815.01 718.506 815.01 718.81C815.01 719.114 815.256 719.36 815.56 719.36Z" fill="#575988"/>
<path d="M810.75 723.34C811.054 723.34 811.3 723.094 811.3 722.79C811.3 722.486 811.054 722.24 810.75 722.24C810.446 722.24 810.2 722.486 810.2 722.79C810.2 723.094 810.446 723.34 810.75 723.34Z" fill="#575988"/>
<path d="M813.24 721.56C813.544 721.56 813.79 721.314 813.79 721.01C813.79 720.706 813.544 720.46 813.24 720.46C812.936 720.46 812.69 720.706 812.69 721.01C812.69 721.314 812.936 721.56 813.24 721.56Z" fill="#575988"/>
<path d="M818.03 717.01C818.334 717.01 818.58 716.764 818.58 716.46C818.58 716.156 818.334 715.91 818.03 715.91C817.726 715.91 817.48 716.156 817.48 716.46C817.48 716.764 817.726 717.01 818.03 717.01Z" fill="#575988"/>
<path fill-rule="evenodd" clip-rule="evenodd" d="M834.15 727.67C833.55 729.49 829.01 729.49 829.01 729.49C829.01 729.49 820.9 731.81 817.27 733.62C813.64 735.43 811.18 734.48 811.18 734.48C802.87 736.39 792.18 733.07 788.96 732.41C785.74 731.75 784.48 727.58 788.46 726.77C788.97 726.665 789.469 726.511 789.95 726.31C793.465 727.52 797.136 728.217 800.85 728.38C809.06 728.73 815.56 728.38 815.56 728.38L823.87 725.71C825.443 724.756 827.19 724.123 829.01 723.85C830.85 723.475 832.59 722.719 834.12 721.63C834.44 723.68 834.61 726.31 834.15 727.67Z" fill="#DCE6F2"/>
<path opacity="0.5" fill-rule="evenodd" clip-rule="evenodd" d="M813.47 732.88C813.007 732.883 812.544 732.84 812.09 732.75L812.21 732.16C813.909 732.42 815.647 732.177 817.21 731.46C817.95 731.17 818.69 730.82 819.41 730.46C820.13 730.1 821.14 729.65 822.04 729.32L822.86 729.04C823.31 728.88 823.77 728.73 824.21 728.54C824.46 728.44 824.71 728.32 824.95 728.2C825.54 727.891 826.164 727.653 826.81 727.49C827.141 727.428 827.474 727.385 827.81 727.36C828.118 727.339 828.425 727.303 828.73 727.25C829.335 727.097 829.922 726.879 830.48 726.6C831.077 726.293 831.708 726.058 832.36 725.9L832.8 725.83C833.274 725.818 833.731 725.649 834.1 725.35L834.55 725.76C834.091 726.163 833.51 726.399 832.9 726.43L832.48 726.5C831.873 726.648 831.286 726.867 830.73 727.15C830.13 727.448 829.5 727.679 828.85 727.84C828.52 727.905 828.186 727.945 827.85 727.96C827.535 727.983 827.221 728.023 826.91 728.08C826.309 728.236 825.729 728.46 825.18 728.75L824.42 729.1C823.96 729.29 823.48 729.45 823.02 729.61L822.22 729.89C821.34 730.21 820.48 730.62 819.64 731.01C818.8 731.4 818.16 731.71 817.4 732.01C816.155 732.541 814.823 732.836 813.47 732.88Z" fill="#575988"/>
<path opacity="0.1" fill-rule="evenodd" clip-rule="evenodd" d="M815.41 632.76C815.41 632.76 819.59 626.76 826.75 626.76C833.91 626.76 836.97 625.95 836.97 625.95C836.97 625.95 832.39 628.67 829.22 629.02C826.05 629.37 815.41 632.76 815.41 632.76Z" fill="black"/>
<path opacity="0.1" fill-rule="evenodd" clip-rule="evenodd" d="M817.83 634.17C817.83 634.17 821.61 631.55 823.77 631.45C825.93 631.35 827.77 631.15 827.77 631.15C826.757 631.861 825.636 632.405 824.45 632.76C822.68 633.26 817.83 634.17 817.83 634.17Z" fill="black"/>
<path opacity="0.1" fill-rule="evenodd" clip-rule="evenodd" d="M818.68 635.98C818.68 635.98 824.37 636.43 824.42 637.98L818.68 635.98Z" fill="black"/>
<path opacity="0.1" fill-rule="evenodd" clip-rule="evenodd" d="M765.61 550.98C765.91 551.03 771 545.69 771.35 543.58C771.628 542.244 772.422 541.073 773.56 540.32C773.56 540.32 776.84 541.63 773.92 545.65C771 549.67 765.61 550.98 765.61 550.98Z" fill="black"/>
<path opacity="0.1" fill-rule="evenodd" clip-rule="evenodd" d="M843.68 378.19C842.52 380.93 841.5 381.19 841.68 383.8C840.33 385.23 838.777 386.453 837.07 387.43C833.47 389.57 829.55 393.76 825.07 393.76C822.068 393.762 819.093 393.199 816.3 392.1C815.58 386.41 813.44 383.94 813.44 383.94C813.44 383.94 848.96 365.76 843.68 378.19Z" fill="black"/>
<path fill-rule="evenodd" clip-rule="evenodd" d="M849.12 368.52C849.12 381.775 838.375 392.52 825.12 392.52C811.865 392.52 801.12 381.775 801.12 368.52C801.12 355.265 811.865 344.52 825.12 344.52C831.485 344.52 837.59 347.049 842.091 351.549C846.591 356.05 849.12 362.155 849.12 368.52Z" fill="#CC818C"/>
<path opacity="0.1" fill-rule="evenodd" clip-rule="evenodd" d="M850.68 403.89L842.97 415.37C842.97 415.37 806.54 432.75 813.5 412.37C816.56 403.37 816.92 396.8 816.37 392.25H816.43C816.861 393.758 817.106 395.313 817.16 396.88C817.27 400.02 817.35 403.99 825.16 405.3C838.16 407.48 845.1 399.36 846.32 397.77C847.566 399.95 849.026 402 850.68 403.89Z" fill="black"/>
<path opacity="0.1" fill-rule="evenodd" clip-rule="evenodd" d="M697.29 355.15L692.46 364.52C690.931 364.389 689.423 364.074 687.97 363.58L687.55 363.08C689.55 363.84 696.16 351.29 696.16 351.29L696.37 351.46C696.95 353.65 697.29 355.15 697.29 355.15Z" fill="black"/>
<path opacity="0.1" fill-rule="evenodd" clip-rule="evenodd" d="M843.08 530.75C827.52 537.51 773.7 531.75 773.7 531.75C773.861 531.176 773.951 530.585 773.97 529.99C775.43 527.75 776.52 526.41 776.52 526.41L841 523.89C841 523.89 842.05 526.76 843.08 530.75Z" fill="black"/>
<path fill-rule="evenodd" clip-rule="evenodd" d="M816.39 392.81L809.21 395.88C806.998 395.862 804.997 394.563 804.08 392.55C802.41 389.08 796.52 392.55 796.52 392.55C796.52 392.55 778.52 391.19 771.88 394.55C771.88 394.55 761.15 390.01 759.64 389.71C758.13 389.41 755.86 388.2 754.8 388.5C753.74 388.8 752.39 386.5 751.63 386.69C750.87 386.88 750.57 385.18 748.15 384.57C745.73 383.96 744.83 384.72 742.15 382C739.47 379.28 717.36 368.55 717.36 368.55L707.36 360.39L696.78 351.93C696.78 351.93 690.13 364.47 688.16 363.71L708.26 387.9C708.26 387.9 722.77 400.59 732.75 404.67C742.73 408.75 741.97 409.96 741.97 409.96C741.97 409.96 772.2 425.38 776.88 425.08C781.56 424.78 780.68 456.63 778.68 461.77C776.68 466.91 773.55 504.09 773.55 504.09C773.55 504.09 770.55 511.95 773.7 517.39C773.7 517.39 774.45 528.58 773.7 530.54C773.7 530.54 827.85 536.33 843.22 529.48C843.22 529.48 845.49 504.39 843.22 501.22C840.95 498.05 845.34 490.98 845.34 490.98L855.01 469.37L878.59 445.64C878.59 445.64 882.21 425.84 866.04 413.15L855.31 403.62C855.31 403.62 849.31 398.43 847.55 398.1C845.79 397.77 846.44 398.1 846.44 398.1C846.44 398.1 839.44 408.31 825.08 405.89C817.3 404.58 817.22 400.61 817.08 397.48C817.039 395.901 816.807 394.333 816.39 392.81Z" fill="#67647E"/>
<path opacity="0.1" fill-rule="evenodd" clip-rule="evenodd" d="M845.94 474.17C845.94 474.17 812.68 475.53 806.04 485.98C806.04 485.98 814.66 481.89 822.36 483.1C830.06 484.31 845.94 474.17 845.94 474.17Z" fill="black"/>
<path opacity="0.1" fill-rule="evenodd" clip-rule="evenodd" d="M809.21 510.59C809.21 510.59 824.93 511.65 828.26 508.32C831.59 504.99 831.6 503.03 831.6 503.03L809.21 510.59Z" fill="black"/>
<path opacity="0.1" fill-rule="evenodd" clip-rule="evenodd" d="M849.12 442.12C849.12 442.12 835.81 457.84 851.99 464.64L849.12 442.12Z" fill="black"/>
<path opacity="0.1" fill-rule="evenodd" clip-rule="evenodd" d="M770.37 411.75C770.37 411.75 775.21 421.62 777.63 422.27L770.37 411.75Z" fill="black"/>
<path opacity="0.1" fill-rule="evenodd" clip-rule="evenodd" d="M754.05 407.51C754.05 407.51 766.14 418.4 768.41 419.45C768.41 419.45 755.86 407.51 754.05 407.51Z" fill="black"/>
<path opacity="0.1" fill-rule="evenodd" clip-rule="evenodd" d="M802.26 397.09C802.26 397.09 790.62 414.47 798.18 425.09C798.18 425.05 793.95 412.5 802.26 397.09Z" fill="black"/>
<path fill-rule="evenodd" clip-rule="evenodd" d="M831.6 528.73L828.04 532.08L827.54 532.54L823.42 536.44C823.13 536.66 822.84 536.88 822.54 537.08C805.77 549.08 802.41 530.84 802.41 530.84C802.41 530.84 795.01 535.68 793.95 531.75C792.89 527.82 811.18 522.23 813.95 522.53C814.193 522.555 814.437 522.555 814.68 522.53C816.001 522.31 817.274 521.86 818.44 521.2L819.25 520.77C820.181 520.246 821.086 519.675 821.96 519.06L831.6 528.73Z" fill="#CC818C"/>
<path opacity="0.1" fill-rule="evenodd" clip-rule="evenodd" d="M849.68 368.52C849.698 376.989 845.252 384.84 837.98 389.18C837.645 388.618 837.351 388.034 837.1 387.43C836.24 385.43 835.71 383.27 834.84 381.26C833.889 379.066 832.531 377.071 830.84 375.38C830.553 375.045 830.185 374.79 829.77 374.64C828.984 374.532 828.188 374.752 827.57 375.25C826.552 375.94 825.417 376.438 824.22 376.72C823.002 376.999 821.727 376.62 820.86 375.72C819.92 374.6 820.05 372.96 820.32 371.53C820.91 368.4 821.89 365.32 821.9 362.14C821.91 358.96 820.69 355.54 817.9 353.96C815.46 352.57 812.43 352.96 809.72 352.18C809.3 352.07 808.889 351.93 808.49 351.76C815.305 344.765 825.679 342.597 834.725 346.278C843.771 349.959 849.685 358.754 849.68 368.52Z" fill="black"/>
<path fill-rule="evenodd" clip-rule="evenodd" d="M806.85 347.92C806.42 348.15 805.94 348.57 806.07 349.05C806.153 349.279 806.307 349.475 806.51 349.61C807.629 350.514 808.923 351.177 810.31 351.56C813.02 352.3 816.06 351.95 818.5 353.34C821.26 354.91 822.5 358.34 822.5 361.52C822.5 364.7 821.5 367.78 820.93 370.9C820.66 372.34 820.52 373.98 821.46 375.1C822.33 375.995 823.602 376.373 824.82 376.1C826.017 375.823 827.152 375.328 828.17 374.64C828.791 374.139 829.589 373.915 830.38 374.02C830.791 374.176 831.158 374.43 831.45 374.76C833.143 376.454 834.5 378.452 835.45 380.65C836.33 382.65 836.85 384.8 837.71 386.82C838.459 388.88 839.865 390.637 841.71 391.82C843.63 392.88 846.29 392.82 847.77 391.18C849.25 389.54 849.13 387.29 849.83 385.32C851.03 381.89 854.38 379.74 856.48 376.78C858.83 373.45 859.48 369.27 860.12 365.24C860.404 363.971 860.425 362.657 860.18 361.38C859.906 360.535 859.551 359.717 859.12 358.94C856.78 354.1 856.83 348.01 853.12 344.15C850.32 341.25 846.07 340.37 842.07 339.87C838.07 339.37 833.87 339.09 830.44 336.98C829.478 336.253 828.417 335.667 827.29 335.24C826.112 334.826 824.806 335.314 824.19 336.4C824.119 336.708 823.979 336.995 823.78 337.24C823.417 337.45 822.975 337.476 822.59 337.31L817.27 335.88L817.88 338.56C815.946 338.641 814.018 338.3 812.23 337.56C812.13 339.08 813.84 340.06 814.37 341.48C814.76 342.797 814.373 344.221 813.37 345.16C811.44 347.1 809.03 346.73 806.85 347.92Z" fill="#585268"/>
<path opacity="0.1" fill-rule="evenodd" clip-rule="evenodd" d="M785.29 709.04L785.07 711.45H784.98C776.31 716.29 758.38 702.79 758.38 702.79L760.25 700.92C760.87 701.608 761.169 702.529 761.07 703.45L764.73 703.65L769.11 708.38C769.11 708.38 780.96 709.75 784.17 708.99L785.29 709.04Z" fill="black"/>
<path fill-rule="evenodd" clip-rule="evenodd" d="M783.77 722.18C778.13 723.44 758.38 723.35 758.38 723.35L747.3 725.1C747.3 725.1 728.3 726.92 726.19 721.02C724.08 715.12 727.85 715.49 727.85 715.49H728L735.91 714.85C735.91 714.85 745.91 710.97 749.62 708.3C752.523 706.039 755.267 703.58 757.83 700.94C757.83 700.94 761.13 700.3 761.07 704.12L764.73 704.32L769.11 709.06C769.11 709.06 780.96 710.43 784.17 709.66H785.29L784.78 715.51L784.92 715.68C785.68 716.6 788.81 721.06 783.77 722.18Z" fill="#FF748F"/>
<path d="M763.32 708.07C763.624 708.07 763.87 707.824 763.87 707.52C763.87 707.216 763.624 706.97 763.32 706.97C763.016 706.97 762.77 707.216 762.77 707.52C762.77 707.824 763.016 708.07 763.32 708.07Z" fill="#575988"/>
<path d="M749.11 714.23C749.414 714.23 749.66 713.984 749.66 713.68C749.66 713.376 749.414 713.13 749.11 713.13C748.806 713.13 748.56 713.376 748.56 713.68C748.56 713.984 748.806 714.23 749.11 714.23Z" fill="#575988"/>
<path d="M741.79 716.45C742.094 716.45 742.34 716.204 742.34 715.9C742.34 715.596 742.094 715.35 741.79 715.35C741.486 715.35 741.24 715.596 741.24 715.9C741.24 716.204 741.486 716.45 741.79 716.45Z" fill="#575988"/>
<path d="M752.84 713.05C753.144 713.05 753.39 712.804 753.39 712.5C753.39 712.196 753.144 711.95 752.84 711.95C752.536 711.95 752.29 712.196 752.29 712.5C752.29 712.804 752.536 713.05 752.84 713.05Z" fill="#575988"/>
<path d="M745.44 715.34C745.744 715.34 745.99 715.094 745.99 714.79C745.99 714.486 745.744 714.24 745.44 714.24C745.136 714.24 744.89 714.486 744.89 714.79C744.89 715.094 745.136 715.34 745.44 715.34Z" fill="#575988"/>
<path d="M756.61 711.3C756.914 711.3 757.16 711.054 757.16 710.75C757.16 710.446 756.914 710.2 756.61 710.2C756.306 710.2 756.06 710.446 756.06 710.75C756.06 711.054 756.306 711.3 756.61 711.3Z" fill="#575988"/>
<path d="M760.34 709.68C760.644 709.68 760.89 709.434 760.89 709.13C760.89 708.826 760.644 708.58 760.34 708.58C760.036 708.58 759.79 708.826 759.79 709.13C759.79 709.434 760.036 709.68 760.34 709.68Z" fill="#575988"/>
<path fill-rule="evenodd" clip-rule="evenodd" d="M783.77 722.18C778.13 723.44 758.38 723.35 758.38 723.35L747.3 725.1C747.3 725.1 728.3 726.92 726.19 721.02C724.08 715.12 727.85 715.49 727.85 715.49H728C729.21 717.06 731.64 718.84 736.41 718.93L750.07 719.48L764.22 718.48C764.22 718.48 777.48 718.09 779.64 717.63C781.454 717.142 783.221 716.492 784.92 715.69C785.68 716.6 788.81 721.06 783.77 722.18Z" fill="#DCE6F2"/>
<path opacity="0.5" fill-rule="evenodd" clip-rule="evenodd" d="M748.37 723.77C747.614 723.781 746.86 723.686 746.13 723.49L746.29 722.91C748.154 723.311 750.089 723.225 751.91 722.66C752.58 722.48 753.24 722.29 753.91 722.09C755.12 721.706 756.352 721.396 757.6 721.16C759.616 720.898 761.652 720.838 763.68 720.98H764.11C770.169 721.298 776.244 721.027 782.25 720.17C783.675 720.071 785.033 719.525 786.13 718.61L786.56 719.04C785.375 720.047 783.901 720.653 782.35 720.77C776.304 721.632 770.188 721.903 764.09 721.58H763.65C761.649 721.44 759.639 721.5 757.65 721.76C756.429 721.988 755.223 722.292 754.04 722.67C753.37 722.87 752.7 723.07 752.04 723.24C750.843 723.566 749.61 723.744 748.37 723.77Z" fill="#575988"/>
<path opacity="0.1" fill-rule="evenodd" clip-rule="evenodd" d="M831.6 528.73L828.04 532.08L819.2 520.76C820.131 520.236 821.036 519.665 821.91 519.05L831.6 528.73Z" fill="black"/>
<path fill-rule="evenodd" clip-rule="evenodd" d="M871.68 435.98L878.68 445.65V455.78C878.68 455.78 881.85 466.51 878.68 477.24L879.02 486.61C879.02 486.61 875.65 495.22 876.86 497.34C876.86 497.34 876.26 503.69 868.1 508.07C859.94 512.45 850.68 522.83 850.68 522.83C850.68 522.83 847.2 529.48 837.83 527.97L828.91 531.75L818.64 518.6L832.54 511.04C832.54 511.04 837.38 504.55 840.25 504.85L852.04 491.09C852.04 491.09 852.34 486.71 855.36 486.71C855.36 486.71 849.77 482.18 851.73 479.46C853.69 476.74 852.04 464.64 852.04 464.64L871.68 435.98Z" fill="#67647E"/>
<path opacity="0.1" fill-rule="evenodd" clip-rule="evenodd" d="M858.68 480.06C858.68 480.06 874.55 479.76 876.51 483.84C878.47 487.92 863.47 477.79 858.68 480.06Z" fill="black"/>
<path opacity="0.1" fill-rule="evenodd" clip-rule="evenodd" d="M827.61 531.75C827.612 532.015 827.588 532.28 827.54 532.54C827.163 535.049 825.073 536.947 822.54 537.08H822.26C819.311 537.08 816.92 534.689 816.92 531.74C816.921 531.151 817.023 530.566 817.22 530.01C814.7 528.01 814.56 524.33 814.63 522.51C815.952 522.29 817.224 521.84 818.39 521.18C819.048 523.069 819.931 524.872 821.02 526.55C821.426 526.454 821.842 526.404 822.26 526.4C825.215 526.4 827.61 528.795 827.61 531.75Z" fill="black"/>
<path fill-rule="evenodd" clip-rule="evenodd" d="M818.87 519.98C818.87 519.98 815.29 520.79 815.29 521.44C815.29 522.09 814.48 527.99 818.41 530.44C822.34 532.89 821.94 527.06 821.94 527.06C821.94 527.06 818.56 521.88 818.87 519.98Z" fill="#575988"/>
<path d="M822.86 537.09C825.809 537.09 828.2 534.699 828.2 531.75C828.2 528.801 825.809 526.41 822.86 526.41C819.911 526.41 817.52 528.801 817.52 531.75C817.52 534.699 819.911 537.09 822.86 537.09Z" fill="#E4AAB4"/>
<path d="M822.86 536.33C825.389 536.33 827.44 534.28 827.44 531.75C827.44 529.221 825.389 527.17 822.86 527.17C820.33 527.17 818.28 529.221 818.28 531.75C818.28 534.28 820.33 536.33 822.86 536.33Z" fill="#DCE6F2"/>
<path opacity="0.1" fill-rule="evenodd" clip-rule="evenodd" d="M802.06 533.82C802.06 533.82 813.35 543.18 827.85 537.24V541.78C827.85 541.78 818.18 548.43 809.42 544.4C800.66 540.37 802.06 533.82 802.06 533.82Z" fill="black"/>
<path opacity="0.1" fill-rule="evenodd" clip-rule="evenodd" d="M802.06 532.61C802.06 532.61 813.35 541.98 827.85 536.03V540.57C827.85 540.57 818.18 547.22 809.42 543.19C800.66 539.16 802.06 532.61 802.06 532.61Z" fill="black"/>
<path fill-rule="evenodd" clip-rule="evenodd" d="M802.06 532.61C802.06 532.61 813.35 541.98 827.85 536.03V540.57C827.85 540.57 818.18 547.22 809.42 543.19C800.66 539.16 802.06 532.61 802.06 532.61Z" fill="#444053"/>
<path opacity="0.05" fill-rule="evenodd" clip-rule="evenodd" d="M802.36 532.61C802.36 532.61 813.65 541.98 828.16 536.03V540.57C828.16 540.57 818.49 547.22 809.72 543.19C800.95 539.16 802.36 532.61 802.36 532.61Z" fill="black"/>
<path opacity="0.1" fill-rule="evenodd" clip-rule="evenodd" d="M766.59 700.92C766.59 700.92 781.71 703.7 783.92 704.3C786.13 704.9 783.32 705.96 783.32 705.96C783.32 705.96 769.52 703.49 766.59 700.92Z" fill="black"/>
<path opacity="0.1" fill-rule="evenodd" clip-rule="evenodd" d="M766.24 692.91C766.49 692.91 776.52 690.09 778.68 685.26L766.24 692.91Z" fill="black"/>
<path opacity="0.1" fill-rule="evenodd" clip-rule="evenodd" d="M780.87 635.08C780.87 635.08 784.93 640.42 787.55 640.27C790.17 640.12 783.25 634.88 780.87 635.08Z" fill="black"/>
<path opacity="0.1" fill-rule="evenodd" clip-rule="evenodd" d="M783.12 643.98C783.12 643.98 784.83 647.75 787.35 646.54L783.12 643.98Z" fill="black"/>
<path opacity="0.05" fill-rule="evenodd" clip-rule="evenodd" d="M792.68 560.98L803.4 589.25C803.4 589.25 804.91 571.06 801.72 565.62C799.869 562.443 796.34 560.632 792.68 560.98Z" fill="black"/>
<g opacity="0.1">
<path fill-rule="evenodd" clip-rule="evenodd" d="M819.02 336.98L818.93 336.57L817.21 336.11L817.4 336.95C817.939 336.99 818.48 337 819.02 336.98Z" fill="black"/>
<path fill-rule="evenodd" clip-rule="evenodd" d="M814.29 343.8L814.47 343.64C815.475 342.703 815.862 341.277 815.47 339.96C815.262 339.458 814.971 338.995 814.61 338.59C813.763 338.423 812.933 338.179 812.13 337.86C812.03 339.37 813.73 340.35 814.26 341.77C814.506 342.423 814.516 343.14 814.29 343.8Z" fill="black"/>
<path fill-rule="evenodd" clip-rule="evenodd" d="M842.88 390.27C841.016 389.095 839.592 387.337 838.83 385.27C837.98 383.27 837.45 381.11 836.58 379.11C835.63 376.912 834.272 374.914 832.58 373.22C832.291 372.887 831.923 372.633 831.51 372.48C830.724 372.376 829.93 372.597 829.31 373.09C828.292 373.78 827.157 374.278 825.96 374.56C824.742 374.835 823.469 374.456 822.6 373.56C821.66 372.44 821.79 370.79 822.06 369.36C822.65 366.24 823.63 363.15 823.64 359.98C823.65 356.81 822.43 353.37 819.64 351.8C817.2 350.41 814.17 350.8 811.46 350.02C810.07 349.638 808.773 348.974 807.65 348.07C807.578 348.012 807.512 347.948 807.45 347.88C807.223 347.967 807.002 348.071 806.79 348.19C806.35 348.42 805.88 348.84 806 349.32C806.09 349.548 806.247 349.743 806.45 349.88C807.568 350.786 808.862 351.45 810.25 351.83C812.96 352.57 815.99 352.22 818.43 353.61C821.19 355.18 822.43 358.61 822.43 361.79C822.43 364.97 821.43 368.05 820.85 371.17C820.58 372.61 820.45 374.25 821.39 375.37C822.259 376.266 823.532 376.645 824.75 376.37C825.947 376.093 827.082 375.598 828.1 374.91C828.717 374.41 829.513 374.186 830.3 374.29C830.713 374.444 831.08 374.698 831.37 375.03C833.059 376.727 834.415 378.725 835.37 380.92C836.25 382.92 836.77 385.07 837.63 387.09C838.379 389.15 839.785 390.907 841.63 392.09C843.54 393.15 846.21 393.09 847.63 391.45C848.023 391.005 848.329 390.489 848.53 389.93C846.882 391.158 844.663 391.292 842.88 390.27Z" fill="black"/>
<path fill-rule="evenodd" clip-rule="evenodd" d="M851.52 382.58C853.03 380.67 855.02 379.04 856.44 377.04C856.72 376.64 856.98 376.22 857.22 375.8C855.39 378.13 852.88 379.98 851.52 382.58Z" fill="black"/>
</g>
</g>
<defs>
<linearGradient id="paint0_linear_2393_2985" x1="777.56" y1="735.06" x2="777.56" y2="331.68" gradientUnits="userSpaceOnUse">
<stop stop-color="#808080" stop-opacity="0.25"/>
<stop offset="0.54" stop-color="#808080" stop-opacity="0.12"/>
<stop offset="1" stop-color="#808080" stop-opacity="0.1"/>
</linearGradient>
<clipPath id="clip0_2393_2985">
<rect width="1028" height="785" fill="white"/>
</clipPath>
</defs>
</svg>
