<svg width="94" height="94" viewBox="0 0 94 94" fill="none" xmlns="http://www.w3.org/2000/svg">
<circle cx="47" cy="47" r="47" fill="#DEE7FF"/>
<path d="M39.4824 32.1433C40.142 31.557 41.1358 31.557 41.7954 32.1433L57.4621 46.0692C58.1806 46.7079 58.2453 47.8082 57.6066 48.5268C56.9679 49.2453 55.8676 49.31 55.1491 48.6713L54.5648 48.152V61.2962C54.5648 63.219 53.0061 64.7777 51.0833 64.7777H30.1945C28.2717 64.7777 26.713 63.219 26.713 61.2962V48.152L26.1287 48.6713C25.4102 49.31 24.3099 49.2453 23.6712 48.5268C23.0325 47.8082 23.0972 46.7079 23.8158 46.0692L39.4824 32.1433ZM30.1945 45.0573V61.2962H35.4167V52.5925C35.4167 51.6311 36.196 50.8518 37.1574 50.8518H44.1204C45.0818 50.8518 45.8611 51.6311 45.8611 52.5925V61.2962H51.0833V45.0573L40.6389 35.7734L30.1945 45.0573ZM42.3796 61.2962V54.3332H38.8982V61.2962H42.3796Z" fill="#172F6E"/>
<path d="M79.815 39.9037L59.2819 23.2505C59.1011 23.1039 58.843 23.1014 58.6594 23.2447L37.3057 39.9037C37.1842 39.9984 37.1132 40.1439 37.1132 40.2979V65.5833C37.1132 65.8595 37.3371 66.0833 37.6132 66.0833H79.5C79.7762 66.0833 80 65.8595 80 65.5833V40.2921C80 40.1414 79.932 39.9987 79.815 39.9037Z" fill="#B1B9C0"/>
<path d="M64.7392 53H56.9096C56.6334 53 56.4096 53.2239 56.4096 53.5V65.5556C56.4096 65.8317 56.6334 66.0556 56.9096 66.0556H64.7392C65.0154 66.0556 65.2392 65.8317 65.2392 65.5556V53.5C65.2392 53.2239 65.0154 53 64.7392 53Z" fill="#172F6E" fill-opacity="0.5"/>
<path d="M37.5525 43H13.4323C13.1562 43 12.9323 43.2239 12.9323 43.5V65.046C12.9323 65.3186 13.1506 65.5409 13.4231 65.546L37.5433 65.9906C37.823 65.9958 38.0525 65.7704 38.0525 65.4907V43.5C38.0525 43.2239 37.8287 43 37.5525 43Z" fill="#D7DFE7"/>
<path d="M60.4966 23H33.7467C33.671 23 33.5981 23.0286 33.5426 23.0801L11.5602 43.4801C11.3603 43.6656 11.4916 44 11.7643 44H39.3209C39.3985 44 39.4731 43.9699 39.529 43.9161L60.7047 23.5161C60.8991 23.3287 60.7665 23 60.4966 23Z" fill="#172F6E" stroke="#172F6E" stroke-linejoin="round"/>
<line x1="61.1191" y1="23.9037" x2="81.9037" y2="42.8809" stroke="#172F6E" stroke-width="3" stroke-linecap="round"/>
<circle cx="60.5694" cy="40.5694" r="4.56944" fill="#647497"/>
<path d="M21.5739 54.211L16.3355 65.3427C16.1794 65.6743 16.4214 66.0556 16.7879 66.0556H35.7972C36.2251 66.0556 36.4553 65.553 36.1757 65.2289L31.1677 59.4242C30.9539 59.1763 30.5635 59.1974 30.3776 59.4668L26.4339 65.1807C26.1935 65.5289 25.6562 65.4398 25.5412 65.0325L22.5075 54.2881C22.3818 53.8429 21.7709 53.7925 21.5739 54.211Z" fill="#85CA83"/>
</svg>
