<svg xmlns="http://www.w3.org/2000/svg" xmlns:xlink="http://www.w3.org/1999/xlink" version="1.1" width="1000" height="1000" viewBox="0 0 1000 1000" xml:space="preserve">
<desc>Created with Fabric.js 3.5.0</desc>
<defs>
</defs>
<rect x="0" y="0" width="100%" height="100%" fill="rgba(255,255,255,0)"/>
<g transform="matrix(1.4113 0 0 1.4113 499.5024 499.5024)" id="346495">
<path style="stroke: none; stroke-width: 0; stroke-dasharray: none; stroke-linecap: butt; stroke-dashoffset: 0; stroke-linejoin: miter; stroke-miterlimit: 4; is-custom-font: none; font-file-url: none; fill: rgb(23,47,110); fill-rule: nonzero; opacity: 1;" vector-effect="non-scaling-stroke" transform=" translate(-256, -256)" d="M 504 256 c 0 136.967 -111.033 248 -248 248 S 8 392.967 8 256 S 119.033 8 256 8 s 248 111.033 248 248 z M 227.314 387.314 l 184 -184 c 6.248 -6.248 6.248 -16.379 0 -22.627 l -22.627 -22.627 c -6.248 -6.249 -16.379 -6.249 -22.628 0 L 216 308.118 l -70.059 -70.059 c -6.248 -6.248 -16.379 -6.248 -22.628 0 l -22.627 22.627 c -6.248 6.248 -6.248 16.379 0 22.627 l 104 104 c 6.249 6.249 16.379 6.249 22.628 0.001 z" stroke-linecap="round"/>
</g>
</svg>